<svg width="32" height="30" viewBox="0 0 32 30" fill="none" xmlns="http://www.w3.org/2000/svg">
<path d="M30.9951 26.8416L26.6662 22.8082V7.29157L24.6218 3.76657C24.471 3.49781 24.2447 3.2728 23.9674 3.11583C23.6902 2.95885 23.3724 2.87588 23.0485 2.87588C22.7246 2.87588 22.4068 2.95885 22.1295 3.11583C21.8522 3.2728 21.6259 3.49781 21.4751 3.76657L19.5551 7.2999V16.1749L3.29736 1.00823C3.17303 0.890708 3.01418 0.810557 2.84108 0.777999C2.66797 0.745441 2.48844 0.761951 2.32538 0.825423C2.16231 0.888895 2.02311 0.996454 1.92551 1.13439C1.82791 1.27232 1.77633 1.43438 1.77736 1.5999V8.33323H3.70625V9.66656H1.77736V14.9999H3.70625V16.3332H1.77736V21.8749H3.70625V23.2082H1.77736V27.4332C1.77736 27.6542 1.87101 27.8662 2.03771 28.0225C2.20441 28.1788 2.4305 28.2666 2.66625 28.2666H30.364C30.5406 28.2675 30.7134 28.2192 30.8606 28.1277C31.0077 28.0362 31.1224 27.9057 31.1901 27.7528C31.2578 27.5999 31.2754 27.4316 31.2407 27.2693C31.206 27.107 31.1205 26.9581 30.9951 26.8416ZM8.88847 21.6666V14.1166L16.9507 21.6666H8.88847ZM24.8885 23.4249H21.3329V21.3999H24.8885V23.4249ZM24.8885 20.0916H21.3329V7.70823L23.0574 4.56657L24.8885 7.71657V20.0916Z" fill="#00A84F"/>
</svg>
