<svg width="32" height="30" viewBox="0 0 32 30" fill="none" xmlns="http://www.w3.org/2000/svg">
<path d="M11 7.32863H10.9964C10.9775 6.58739 10.3429 6.0121 9.57074 6.00191V6H4.36892V6.0035C3.60406 6.02166 3.02056 6.59344 3.00332 7.32895H3V23.6382H3.00265C3.01691 24.3709 3.61202 24.9408 4.36892 24.9691V25H9.57074C10.3668 24.9997 11 24.4027 11 23.6386V7.32863ZM6.99967 23.4111C6.72607 23.4144 6.45451 23.3655 6.20075 23.2672C5.94698 23.1689 5.71606 23.0231 5.52137 22.8384C5.32669 22.6537 5.17212 22.4336 5.06663 22.1911C4.96114 21.9485 4.90683 21.6882 4.90685 21.4253C4.90688 21.1624 4.96123 20.9022 5.06676 20.6596C5.17229 20.4171 5.32689 20.1971 5.52161 20.0124C5.71632 19.8277 5.94727 19.6819 6.20105 19.5837C6.45484 19.4854 6.7264 19.4365 7 19.4399C7.54357 19.4465 8.06253 19.6587 8.44445 20.0304C8.82637 20.4021 9.04051 20.9033 9.04046 21.4257C9.04042 21.948 8.8262 22.4492 8.44422 22.8208C8.06223 23.1925 7.54324 23.4045 6.99967 23.4111ZM9.34629 16.2726H4.65338V7.58856H9.34629V16.2726Z" fill="#00A84F"/>
<path d="M20 7.32863H19.9964C19.9775 6.58739 19.3429 6.0121 18.5707 6.00191V6H13.3689V6.0035C12.6041 6.02166 12.0206 6.59344 12.0033 7.32895H12V23.6382H12.0027C12.0169 24.3709 12.612 24.9408 13.3689 24.9691V25H18.5707C19.3668 24.9997 20 24.4027 20 23.6386V7.32863ZM15.9997 23.4111C15.7261 23.4144 15.4545 23.3655 15.2007 23.2672C14.947 23.1689 14.7161 23.0231 14.5214 22.8384C14.3267 22.6537 14.1721 22.4336 14.0666 22.1911C13.9611 21.9485 13.9068 21.6882 13.9069 21.4253C13.9069 21.1624 13.9612 20.9022 14.0668 20.6596C14.1723 20.4171 14.3269 20.1971 14.5216 20.0124C14.7163 19.8277 14.9473 19.6819 15.2011 19.5837C15.4548 19.4854 15.7264 19.4365 16 19.4399C16.5436 19.4465 17.0625 19.6586 17.4445 20.0303C17.8265 20.4019 18.0406 20.9032 18.0406 21.4255C18.0406 21.9478 17.8265 22.4491 17.4445 22.8207C17.0625 23.1924 16.5436 23.4045 16 23.4111H15.9997ZM18.3463 16.2726H13.6537V7.58856H18.3466V16.2726H18.3463Z" fill="#00A84F"/>
<path d="M29 7.32863H28.9964C28.9775 6.58739 28.3429 6.0121 27.5707 6.00191V6H22.3689V6.0035C21.6041 6.02166 21.0206 6.59344 21.0033 7.32895H21V23.6382H21.0027C21.0169 24.3709 21.612 24.9408 22.3689 24.9691V25H27.5707C28.3668 24.9997 29 24.4027 29 23.6386V7.32863ZM25 23.4111C24.7264 23.4144 24.4548 23.3655 24.2011 23.2672C23.9473 23.1689 23.7164 23.0231 23.5217 22.8384C23.327 22.6537 23.1724 22.4336 23.067 22.1911C22.9615 21.9485 22.9072 21.6882 22.9072 21.4253C22.9072 21.1624 22.9616 20.9022 23.0671 20.6596C23.1726 20.4171 23.3272 20.1971 23.5219 20.0124C23.7167 19.8277 23.9476 19.6819 24.2014 19.5837C24.4552 19.4854 24.7267 19.4365 25.0003 19.4399C25.5439 19.4465 26.0629 19.6587 26.4448 20.0304C26.8267 20.4021 27.0408 20.9033 27.0408 21.4257C27.0408 21.948 26.8265 22.4492 26.4446 22.8208C26.0626 23.1925 25.5436 23.4045 25 23.4111ZM27.3466 16.2726H22.6537V7.58856H27.3466V16.2726Z" fill="#00A84F"/>
</svg>
