<svg width="22" height="22" viewBox="0 0 22 22" fill="none" xmlns="http://www.w3.org/2000/svg">
<path d="M6.625 0.5C5.92881 0.5 5.26113 0.776562 4.76884 1.26884C4.27656 1.76113 4 2.42881 4 3.125V7.5C3.07174 7.5 2.1815 7.86875 1.52513 8.52513C0.868749 9.1815 0.5 10.0717 0.5 11V18.875C0.5 19.5712 0.776562 20.2389 1.26884 20.7312C1.76113 21.2234 2.42881 21.5 3.125 21.5H13.625C13.0558 20.7434 12.7486 19.8218 12.75 18.875V10.125C12.75 9.13975 13.0755 8.2315 13.625 7.5H5.75V3.125C5.75 2.89294 5.84219 2.67038 6.00628 2.50628C6.17038 2.34219 6.39294 2.25 6.625 2.25H15.375C15.6071 2.25 15.8296 2.34219 15.9937 2.50628C16.1578 2.67038 16.25 2.89294 16.25 3.125V5.8375C16.5335 5.77975 16.8258 5.75 17.125 5.75H18V3.125C18 2.42881 17.7234 1.76113 17.2312 1.26884C16.7389 0.776562 16.0712 0.5 15.375 0.5H6.625ZM4.875 12.75C4.64294 12.75 4.42038 12.6578 4.25628 12.4937C4.09219 12.3296 4 12.1071 4 11.875C4 11.6429 4.09219 11.4204 4.25628 11.2563C4.42038 11.0922 4.64294 11 4.875 11C5.10706 11 5.32962 11.0922 5.49372 11.2563C5.65781 11.4204 5.75 11.6429 5.75 11.875C5.75 12.1071 5.65781 12.3296 5.49372 12.4937C5.32962 12.6578 5.10706 12.75 4.875 12.75ZM4.875 16.25C4.64294 16.25 4.42038 16.1578 4.25628 15.9937C4.09219 15.8296 4 15.6071 4 15.375C4 15.1429 4.09219 14.9204 4.25628 14.7563C4.42038 14.5922 4.64294 14.5 4.875 14.5C5.10706 14.5 5.32962 14.5922 5.49372 14.7563C5.65781 14.9204 5.75 15.1429 5.75 15.375C5.75 15.6071 5.65781 15.8296 5.49372 15.9937C5.32962 16.1578 5.10706 16.25 4.875 16.25ZM9.25 11.875C9.25 12.1071 9.15781 12.3296 8.99372 12.4937C8.82962 12.6578 8.60706 12.75 8.375 12.75C8.14294 12.75 7.92038 12.6578 7.75628 12.4937C7.59219 12.3296 7.5 12.1071 7.5 11.875C7.5 11.6429 7.59219 11.4204 7.75628 11.2563C7.92038 11.0922 8.14294 11 8.375 11C8.60706 11 8.82962 11.0922 8.99372 11.2563C9.15781 11.4204 9.25 11.6429 9.25 11.875ZM8.375 16.25C8.14294 16.25 7.92038 16.1578 7.75628 15.9937C7.59219 15.8296 7.5 15.6071 7.5 15.375C7.5 15.1429 7.59219 14.9204 7.75628 14.7563C7.92038 14.5922 8.14294 14.5 8.375 14.5C8.60706 14.5 8.82962 14.5922 8.99372 14.7563C9.15781 14.9204 9.25 15.1429 9.25 15.375C9.25 15.6071 9.15781 15.8296 8.99372 15.9937C8.82962 16.1578 8.60706 16.25 8.375 16.25ZM14.5 10.125C14.5 9.42881 14.7766 8.76113 15.2688 8.26884C15.7611 7.77656 16.4288 7.5 17.125 7.5H18.875C19.5712 7.5 20.2389 7.77656 20.7312 8.26884C21.2234 8.76113 21.5 9.42881 21.5 10.125V18.875C21.5 19.5712 21.2234 20.2389 20.7312 20.7312C20.2389 21.2234 19.5712 21.5 18.875 21.5H17.125C16.4288 21.5 15.7611 21.2234 15.2688 20.7312C14.7766 20.2389 14.5 19.5712 14.5 18.875V10.125Z" fill="#00A84F"/>
</svg>
