<svg width="32" height="30" viewBox="0 0 32 30" fill="none" xmlns="http://www.w3.org/2000/svg">
<path d="M24 24.9281L21.41 22.5L20 23.8219L24 27.5719L31 21.0094L29.59 19.6875L24 24.9281Z" fill="#00A84F"/>
<path d="M15 21.5625H17V23.4375H15V21.5625Z" fill="#00A84F"/>
<path d="M9 21.5625H11V23.4375H9V21.5625Z" fill="#00A84F"/>
<path d="M21 16.875H23V18.75H21V16.875Z" fill="#00A84F"/>
<path d="M15 16.875H17V18.75H15V16.875Z" fill="#00A84F"/>
<path d="M9 16.875H11V18.75H9V16.875Z" fill="#00A84F"/>
<path d="M21 12.1875H23V14.0625H21V12.1875Z" fill="#00A84F"/>
<path d="M15 12.1875H17V14.0625H15V12.1875Z" fill="#00A84F"/>
<path d="M9 12.1875H11V14.0625H9V12.1875Z" fill="#00A84F"/>
<path d="M9 6.5625H23V9.375H9V6.5625Z" fill="#00A84F"/>
<path d="M17 28.125H6.005C5.4734 28.1245 4.96373 27.9263 4.58784 27.5739C4.21194 27.2215 4.00053 26.7437 4 26.2453V3.74625C4.00053 3.25012 4.21099 2.77444 4.5852 2.42362C4.95941 2.0728 5.46679 1.8755 5.996 1.875H26.004C26.5332 1.8755 27.0406 2.0728 27.4148 2.42362C27.789 2.77444 27.9995 3.25012 28 3.74625V16.875H26V3.75H6V26.25H17V28.125Z" fill="#00A84F"/>
</svg>
