<svg width="32" height="30" viewBox="0 0 32 30" fill="none" xmlns="http://www.w3.org/2000/svg">
<path d="M18.4004 12H25.6004V11.121C25.6005 10.913 25.5698 10.706 25.5092 10.506L25.5076 10.5C25.3952 10.1338 25.1854 9.8004 24.898 9.531L18.634 3.6585C18.1841 3.23697 17.5741 3.00013 16.938 3H9.60039C8.7517 3 7.93777 3.31607 7.33765 3.87868C6.73753 4.44129 6.40039 5.20435 6.40039 6V24C6.40039 24.7956 6.73753 25.5587 7.33765 26.1213C7.93777 26.6839 8.7517 27 9.60039 27H13.154L13.1332 26.961C12.884 26.5111 12.7706 26.0059 12.8052 25.5H9.60039C9.17604 25.5 8.76908 25.342 8.46902 25.0607C8.16896 24.7794 8.00039 24.3978 8.00039 24V6C8.00039 5.60218 8.16896 5.22064 8.46902 4.93934C8.76908 4.65804 9.17604 4.5 9.60039 4.5H16.0004V9.75C16.0004 10.3467 16.2532 10.919 16.7033 11.341C17.1534 11.7629 17.7639 12 18.4004 12ZM18.4004 10.5C18.1882 10.5 17.9847 10.421 17.8347 10.2803C17.6847 10.1397 17.6004 9.94891 17.6004 9.75V4.8105L23.6692 10.5H18.4004Z" fill="#00A84F"/>
<path d="M23.6961 14.322C23.9732 14.0582 24.3032 13.8485 24.6672 13.7049C25.0311 13.5614 25.4218 13.4867 25.8167 13.4854C26.2115 13.484 26.6028 13.5559 26.9679 13.697C27.3329 13.8381 27.6646 14.0455 27.9438 14.3073C28.2229 14.5691 28.444 14.8801 28.5944 15.2224C28.7447 15.5647 28.8213 15.9316 28.8197 16.3017C28.8181 16.6719 28.7383 17.0382 28.585 17.3793C28.4317 17.7205 28.2079 18.0298 27.9265 18.2895L20.1985 25.533C19.7483 25.9552 19.1842 26.2549 18.5665 26.4L16.1697 26.961C15.9314 27.0166 15.6818 27.0136 15.4451 26.9521C15.2084 26.8906 14.9927 26.7727 14.8189 26.61C14.6452 26.4473 14.5193 26.2451 14.4534 26.0233C14.3876 25.8015 14.3841 25.5674 14.4433 25.344L15.0433 23.097C15.1969 22.518 15.5169 21.987 15.9681 21.567L23.6961 14.322Z" fill="#00A84F"/>
</svg>
