<svg width="40" height="59" viewBox="0 0 40 59" fill="none" xmlns="http://www.w3.org/2000/svg">
<path style="mix-blend-mode:multiply" opacity="0.25" d="M19.6905 58.156C30.5653 58.156 39.3811 54.4508 39.3811 49.8802C39.3811 45.3097 30.5653 41.6045 19.6905 41.6045C8.81575 41.6045 0 45.3097 0 49.8802C0 54.4508 8.81575 58.156 19.6905 58.156Z" fill="url(#paint0_radial)"/>
<path opacity="0.7" d="M21.3239 50.6643C20.8175 50.9192 20.2581 51.0519 19.6907 51.0519C19.1233 51.0519 18.5638 50.9192 18.0574 50.6643C17.8613 50.5971 17.6912 50.4704 17.5708 50.3024C17.4504 50.1343 17.3857 49.9332 17.3857 49.7268C17.3857 49.5204 17.4504 49.319 17.5708 49.1509C17.6912 48.9829 17.8613 48.8565 18.0574 48.7892C18.5638 48.5343 19.1233 48.4014 19.6907 48.4014C20.2581 48.4014 20.8175 48.5343 21.3239 48.7892C21.52 48.8565 21.6901 48.9829 21.8105 49.1509C21.9309 49.319 21.9957 49.5204 21.9957 49.7268C21.9957 49.9332 21.9309 50.1343 21.8105 50.3024C21.6901 50.4704 21.52 50.5971 21.3239 50.6643Z" fill="black"/>
<path d="M33.8451 14.4524C33.8451 23.3865 23.0661 38.3795 20.3189 41.1215C19.6656 41.7715 19.6656 41.7632 19.0207 41.1215C16.2819 38.3962 5.49442 23.4615 5.49442 14.4524C5.44847 12.5712 5.78113 10.6999 6.47285 8.94856C7.16457 7.1972 8.20137 5.60121 9.52222 4.25453C10.8431 2.90786 12.4214 1.83774 14.1641 1.10707C15.9068 0.376406 17.7787 0 19.6698 0C21.5609 0 23.4329 0.376406 25.1756 1.10707C26.9183 1.83774 28.4965 2.90786 29.8173 4.25453C31.1382 5.60121 32.175 7.1972 32.8667 8.94856C33.5584 10.6999 33.8911 12.5712 33.8451 14.4524Z" fill="url(#paint1_linear)"/>
<path d="M27.2471 15.8437C27.9194 11.7229 25.1071 7.84015 20.9659 7.17126C16.8247 6.50236 12.9226 9.30062 12.2504 13.4214C11.5781 17.5422 14.3904 21.4251 18.5316 22.094C22.6728 22.7629 26.5749 19.9645 27.2471 15.8437Z" fill="url(#paint2_radial)"/>
<defs>
<radialGradient id="paint0_radial" cx="0" cy="0" r="1" gradientUnits="userSpaceOnUse" gradientTransform="translate(33.2094 42.2951) rotate(-7.75412) scale(18.8867 8.59293)">
<stop/>
<stop offset="1" stop-color="white"/>
</radialGradient>
<linearGradient id="paint1_linear" x1="19.6698" y1="0" x2="19.6698" y2="41.6059" gradientUnits="userSpaceOnUse">
<stop stop-color="#00451A"/>
<stop offset="1" stop-color="#00A84F"/>
</linearGradient>
<radialGradient id="paint2_radial" cx="0" cy="0" r="1" gradientUnits="userSpaceOnUse" gradientTransform="translate(19.8534 14.5733) scale(7.59653 7.55902)">
<stop stop-color="white"/>
<stop offset="0.28" stop-color="#FBFBFB"/>
<stop offset="0.56" stop-color="#EEEEEE"/>
<stop offset="0.85" stop-color="#DADADA"/>
<stop offset="1" stop-color="#CCCCCC"/>
</radialGradient>
</defs>
</svg>
