<svg width="239" height="239" viewBox="0 0 239 239" fill="none" xmlns="http://www.w3.org/2000/svg">
<path opacity="0.21" d="M119.724 238.874C185.597 238.874 238.999 185.472 238.999 119.599C238.999 53.7248 185.597 0.323486 119.724 0.323486C53.8498 0.323486 0.448486 53.7248 0.448486 119.599C0.448486 185.472 53.8498 238.874 119.724 238.874Z" fill="#C6BA9B"/>
<path opacity="0.367" d="M119.723 212.982C171.298 212.982 213.107 171.173 213.107 119.599C213.107 68.0242 171.298 26.2148 119.723 26.2148C68.149 26.2148 26.3396 68.0242 26.3396 119.599C26.3396 171.173 68.149 212.982 119.723 212.982Z" fill="#C6BA9B"/>
<path opacity="0.367" d="M119.724 190.774C159.033 190.774 190.899 158.908 190.899 119.599C190.899 80.2894 159.033 48.4231 119.724 48.4231C80.4146 48.4231 48.5482 80.2894 48.5482 119.599C48.5482 158.908 80.4146 190.774 119.724 190.774Z" fill="#C6BA9B"/>
<path d="M118.588 129.07C122.776 129.07 126.171 125.675 126.171 121.486C126.171 117.298 122.776 113.903 118.588 113.903C114.399 113.903 111.004 117.298 111.004 121.486C111.004 125.675 114.399 129.07 118.588 129.07Z" fill="#B77E30"/>
</svg>
