<svg width="32" height="30" viewBox="0 0 32 30" fill="none" xmlns="http://www.w3.org/2000/svg">
<path d="M17.5064 27.7374L15.3331 22.9499C17.4264 22.2249 19.3864 21.2499 21.1998 20.1124L17.5064 27.7374ZM7.51975 15.6249L2.41309 13.5874L10.5464 10.1249C9.33309 11.8249 8.29309 13.6624 7.51975 15.6249ZM28.8131 2.98745C28.8131 2.98745 22.2131 0.336199 14.6664 7.41245C11.7464 10.1499 9.99975 13.1624 8.86642 15.7999C8.49309 16.7374 8.74642 17.7624 9.47975 18.4625L12.3198 21.1124C13.0531 21.8124 14.1464 22.0374 15.1464 21.6875C18.5045 20.4871 21.5535 18.634 24.0931 16.2499C31.6398 9.17495 28.8131 2.98745 28.8131 2.98745ZM19.3864 11.8249C18.3464 10.8499 18.3464 9.26245 19.3864 8.28745C20.4264 7.31245 22.1198 7.31245 23.1598 8.28745C24.1864 9.26245 24.1998 10.8499 23.1598 11.8249C22.1198 12.7999 20.4264 12.7999 19.3864 11.8249ZM11.8398 20.6624L9.95975 18.8999L11.8398 20.6624ZM8.31975 27.4999L13.1731 22.9499C12.7198 22.8375 12.2798 22.6499 11.8798 22.3874L6.43975 27.4999H8.31975ZM2.66642 27.4999H4.54642L10.9064 21.5499L9.01309 19.7874L2.66642 25.7374V27.4999ZM2.66642 23.9624L8.11975 18.8624C7.83975 18.4874 7.63975 18.0874 7.51975 17.6499L2.66642 22.1999V23.9624Z" fill="#00A84F"/>
</svg>
