<svg width="32" height="30" viewBox="0 0 32 30" fill="none" xmlns="http://www.w3.org/2000/svg">
<path d="M31.4375 29.4727C31.0625 29.8242 30.6146 30 30.0938 30C29.5729 30 29.125 29.8242 28.75 29.4727L14.7188 16.3184L11.4375 19.3945V19.4238C11.8125 19.7754 12 20.2002 12 20.6982C12 21.1963 11.8125 21.6211 11.4375 21.9727C11.0625 22.3242 10.6094 22.5 10.0781 22.5C9.54688 22.5 9.09375 22.3242 8.71875 21.9727L0.5625 14.3262C0.1875 13.9746 0 13.5498 0 13.0518C0 12.5537 0.1875 12.1289 0.5625 11.7773C0.9375 11.4258 1.39062 11.25 1.92188 11.25C2.45312 11.25 2.90625 11.4258 3.28125 11.7773L3.3125 11.8066L12.5938 3.10547L12.5625 3.07617C12.1875 2.72461 12 2.2998 12 1.80176C12 1.30371 12.1875 0.878906 12.5625 0.527344C12.9375 0.175781 13.3906 0 13.9219 0C14.4531 0 14.9062 0.175781 15.2812 0.527344L23.4375 8.17383C23.8125 8.52539 24 8.9502 24 9.44824C24 9.94629 23.8125 10.3711 23.4375 10.7227C23.0625 11.0742 22.6094 11.25 22.0781 11.25C21.5469 11.25 21.0938 11.0742 20.7188 10.7227L20.6875 10.6934L17.4062 13.7695L31.4375 26.9531C31.8125 27.3047 32 27.7246 32 28.2129C32 28.7012 31.8125 29.1211 31.4375 29.4727ZM10.5312 7.32422L7.84375 9.87305L13.5 15.1758L16.1875 12.6562L10.5312 7.32422Z" fill="#00A84F"/>
</svg>
