<svg width="32" height="30" viewBox="0 0 32 30" fill="none" xmlns="http://www.w3.org/2000/svg">
<path d="M30 14.0625H17V1.875H15V14.0625H2V15.9375H15V28.125H17V15.9375H30V14.0625Z" fill="#00A84F"/>
<path d="M5 28.125C4.40666 28.125 3.82664 27.9601 3.33329 27.651C2.83994 27.342 2.45543 26.9027 2.22836 26.3888C2.0013 25.8749 1.94189 25.3094 2.05765 24.7638C2.1734 24.2182 2.45912 23.7171 2.87868 23.3238C3.29824 22.9304 3.83279 22.6626 4.41473 22.554C4.99667 22.4455 5.59987 22.5012 6.14805 22.7141C6.69623 22.927 7.16477 23.2874 7.49441 23.75C7.82405 24.2125 8 24.7562 8 25.3125C7.99921 26.0582 7.68288 26.7731 7.12044 27.3004C6.55801 27.8277 5.79541 28.1243 5 28.125ZM5 24.375C4.80222 24.375 4.60888 24.43 4.44443 24.533C4.27998 24.636 4.15181 24.7824 4.07612 24.9537C4.00043 25.125 3.98063 25.3135 4.01922 25.4954C4.0578 25.6773 4.15304 25.8443 4.29289 25.9754C4.43275 26.1065 4.61093 26.1958 4.80491 26.232C4.99889 26.2682 5.19996 26.2496 5.38268 26.1786C5.56541 26.1077 5.72159 25.9875 5.83147 25.8333C5.94135 25.6792 6 25.4979 6 25.3125C5.99974 25.0639 5.89429 24.8256 5.70682 24.6499C5.51934 24.4741 5.26514 24.3752 5 24.375Z" fill="#00A84F"/>
<path d="M8 7.5C7.40666 7.5 6.82664 7.33505 6.33329 7.02601C5.83994 6.71697 5.45543 6.27772 5.22836 5.7638C5.0013 5.24988 4.94189 4.68438 5.05765 4.13881C5.1734 3.59324 5.45912 3.0921 5.87868 2.69876C6.29824 2.30543 6.83279 2.03756 7.41473 1.92904C7.99667 1.82052 8.59987 1.87622 9.14805 2.08909C9.69623 2.30196 10.1648 2.66245 10.4944 3.12496C10.8241 3.58747 11 4.13124 11 4.6875C10.9992 5.43319 10.6829 6.14813 10.1204 6.67542C9.55801 7.2027 8.79541 7.49926 8 7.5ZM8 3.75C7.80222 3.75 7.60888 3.80498 7.44443 3.908C7.27998 4.01101 7.15181 4.15743 7.07612 4.32874C7.00043 4.50004 6.98063 4.68854 7.01922 4.8704C7.0578 5.05226 7.15304 5.2193 7.29289 5.35041C7.43275 5.48153 7.61093 5.57081 7.80491 5.60699C7.99889 5.64316 8.19996 5.6246 8.38268 5.55364C8.56541 5.48268 8.72159 5.36252 8.83147 5.20835C8.94135 5.05418 9 4.87292 9 4.6875C8.99974 4.43894 8.89429 4.20062 8.70682 4.02486C8.51934 3.8491 8.26514 3.75025 8 3.75Z" fill="#00A84F"/>
<path d="M22 12.1875C21.4067 12.1875 20.8266 12.0226 20.3333 11.7135C19.8399 11.4045 19.4554 10.9652 19.2284 10.4513C19.0013 9.93738 18.9419 9.37188 19.0576 8.82631C19.1734 8.28074 19.4591 7.7796 19.8787 7.38626C20.2982 6.99293 20.8328 6.72506 21.4147 6.61654C21.9967 6.50802 22.5999 6.56372 23.1481 6.77659C23.6962 6.98946 24.1648 7.34995 24.4944 7.81246C24.8241 8.27497 25 8.81874 25 9.375C24.9992 10.1207 24.6829 10.8356 24.1204 11.3629C23.558 11.8902 22.7954 12.1868 22 12.1875ZM22 8.4375C21.8022 8.4375 21.6089 8.49248 21.4444 8.5955C21.28 8.69851 21.1518 8.84493 21.0761 9.01624C21.0004 9.18754 20.9806 9.37604 21.0192 9.5579C21.0578 9.73976 21.153 9.9068 21.2929 10.0379C21.4327 10.169 21.6109 10.2583 21.8049 10.2945C21.9989 10.3307 22.2 10.3121 22.3827 10.2411C22.5654 10.1702 22.7216 10.05 22.8315 9.89585C22.9414 9.74168 23 9.56042 23 9.375C22.9997 9.12644 22.8943 8.88812 22.7068 8.71236C22.5193 8.5366 22.2651 8.43775 22 8.4375Z" fill="#00A84F"/>
<path d="M11 12.1875C12.1046 12.1875 13 11.348 13 10.3125C13 9.27697 12.1046 8.4375 11 8.4375C9.89543 8.4375 9 9.27697 9 10.3125C9 11.348 9.89543 12.1875 11 12.1875Z" fill="#00A84F"/>
<path d="M11 21.5625C12.1046 21.5625 13 20.723 13 19.6875C13 18.652 12.1046 17.8125 11 17.8125C9.89543 17.8125 9 18.652 9 19.6875C9 20.723 9.89543 21.5625 11 21.5625Z" fill="#00A84F"/>
<path d="M21 21.5625C22.1046 21.5625 23 20.723 23 19.6875C23 18.652 22.1046 17.8125 21 17.8125C19.8954 17.8125 19 18.652 19 19.6875C19 20.723 19.8954 21.5625 21 21.5625Z" fill="#00A84F"/>
<path d="M22 28.125C23.1046 28.125 24 27.2855 24 26.25C24 25.2145 23.1046 24.375 22 24.375C20.8954 24.375 20 25.2145 20 26.25C20 27.2855 20.8954 28.125 22 28.125Z" fill="#00A84F"/>
<path d="M28 24.375C29.1046 24.375 30 23.5355 30 22.5C30 21.4645 29.1046 20.625 28 20.625C26.8954 20.625 26 21.4645 26 22.5C26 23.5355 26.8954 24.375 28 24.375Z" fill="#00A84F"/>
<path d="M4 12.1875C5.10457 12.1875 6 11.348 6 10.3125C6 9.27697 5.10457 8.4375 4 8.4375C2.89543 8.4375 2 9.27697 2 10.3125C2 11.348 2.89543 12.1875 4 12.1875Z" fill="#00A84F"/>
<path d="M28 5.625C29.1046 5.625 30 4.78553 30 3.75C30 2.71447 29.1046 1.875 28 1.875C26.8954 1.875 26 2.71447 26 3.75C26 4.78553 26.8954 5.625 28 5.625Z" fill="#00A84F"/>
</svg>
