<svg width="32" height="30" viewBox="0 0 32 30" fill="none" xmlns="http://www.w3.org/2000/svg">
<path d="M16 23.3494V24.2283C16.0003 24.3448 16.0498 24.4565 16.1377 24.5389C16.2256 24.6213 16.3447 24.6677 16.469 24.668H30.063V22.9102H16.469C16.3448 22.9104 16.2257 22.9567 16.1378 23.039C16.05 23.1213 16.0004 23.2329 16 23.3494Z" fill="#00A84F"/>
<path d="M30.0625 20.2734H16.469C16.3447 20.2737 16.2256 20.3201 16.1377 20.4025C16.0498 20.4849 16.0003 20.5966 16 20.7131V21.592C16.0004 21.7085 16.05 21.8201 16.1378 21.9024C16.2257 21.9847 16.3448 22.031 16.469 22.0312H30.063V20.2734H30.0625Z" fill="#00A84F"/>
<path d="M30.5315 27.3047H30.0625V25.5469H16.469C16.3447 25.5472 16.2257 25.5937 16.1378 25.6761C16.0499 25.7584 16.0004 25.8701 16 25.9866V27.3052H15.0625V19.8342C15.0628 19.7177 15.1123 19.606 15.2002 19.5236C15.2881 19.4412 15.4072 19.3948 15.5315 19.3945H30.063V17.6367C30.0623 17.4038 29.9634 17.1806 29.7877 17.0159C29.612 16.8512 29.3739 16.7584 29.1255 16.7578H22.5625V10.6055C22.5618 9.90636 22.2653 9.23606 21.738 8.74171C21.2107 8.24737 20.4957 7.96937 19.75 7.96875H17.406V4.45312C17.406 3.52072 17.0109 2.62651 16.3076 1.9672C15.6044 1.3079 14.6506 0.9375 13.656 0.9375C12.6614 0.9375 11.7076 1.3079 11.0043 1.9672C10.3011 2.62651 9.906 3.52072 9.906 4.45312V7.96875H7.562C6.81637 7.96949 6.10151 8.24755 5.57432 8.74188C5.04712 9.23621 4.75066 9.90644 4.75 10.6055V16.7578H4.2815C4.0235 16.7578 3.6955 16.9223 3.553 17.1234L2.1975 19.0284C2.055 19.23 1.9375 19.5919 1.9375 19.8337V27.3047H1.469C1.34474 27.3051 1.22567 27.3515 1.1378 27.4339C1.04993 27.5163 1.0004 27.6279 1 27.7444V28.6233C1.0004 28.7397 1.04995 28.8513 1.13783 28.9336C1.22572 29.0159 1.34478 29.0623 1.469 29.0625H30.5315C30.6556 29.0621 30.7746 29.0157 30.8623 28.9334C30.9501 28.8512 30.9996 28.7397 31 28.6233V27.7444C30.9996 27.628 30.9501 27.5164 30.8624 27.434C30.7746 27.3517 30.6557 27.3052 30.5315 27.3047ZM11.3125 24.668V27.3047H10.8435V24.668H9.203V25.5469C9.332 25.5469 9.4375 25.6463 9.4375 25.7667V26.2064C9.43737 26.2647 9.41262 26.3205 9.36867 26.3617C9.32472 26.4029 9.26515 26.4261 9.203 26.4263V27.3052H8.734V26.4263C8.67185 26.4261 8.61228 26.4029 8.56833 26.3617C8.52438 26.3205 8.49963 26.2647 8.4995 26.2064V25.7667C8.4995 25.6463 8.605 25.5469 8.734 25.5469V24.668H7.0935V27.3047H6.625V24.2283H11.313V24.668H11.3125ZM13.6565 1.59656C14.4643 1.59743 15.2388 1.89867 15.81 2.43419C16.3813 2.96971 16.7026 3.69578 16.7035 4.45312C16.7035 6.02812 15.337 7.30969 13.6565 7.30969C11.976 7.30969 10.6095 6.02812 10.6095 4.45312C10.6103 3.69575 10.9316 2.9696 11.5028 2.43405C12.0741 1.8985 12.8486 1.59731 13.6565 1.59656ZM5.6875 10.6055C5.68895 10.1397 5.88696 9.69337 6.23828 9.36401C6.58959 9.03465 7.06567 8.84902 7.5625 8.84766H19.75C20.2468 8.84902 20.7229 9.03465 21.0742 9.36401C21.4255 9.69337 21.6235 10.1397 21.625 10.6055V16.7578H13.1875C12.9391 16.7584 12.701 16.8512 12.5253 17.0159C12.3496 17.1806 12.2507 17.4038 12.25 17.6367V27.3047H11.781V23.9208H6.156V27.3047H5.687V10.6055H5.6875ZM3.344 19.1747C3.344 19.0542 3.4495 18.9548 3.5785 18.9548H4.0475C4.1765 18.9548 4.282 19.0542 4.282 19.1747V21.3722C4.28174 21.4304 4.25695 21.4862 4.21303 21.5274C4.16911 21.5685 4.10961 21.5918 4.0475 21.592H3.578C3.51589 21.5918 3.45639 21.5685 3.41247 21.5274C3.36855 21.4862 3.34376 21.4304 3.3435 21.3722V19.1747H3.344ZM3.344 23.13C3.344 23.0095 3.4495 22.9102 3.5785 22.9102H4.0475C4.1765 22.9102 4.282 23.0095 4.282 23.13V25.3275C4.28187 25.3858 4.25712 25.4416 4.21317 25.4828C4.16922 25.524 4.10965 25.5472 4.0475 25.5473H3.578C3.51585 25.5472 3.45628 25.524 3.41233 25.4828C3.36838 25.4416 3.34363 25.3858 3.3435 25.3275V23.13H3.344Z" fill="#00A84F"/>
<path d="M6.8595 16.3188H7.3285C7.39061 16.3186 7.45011 16.2953 7.49403 16.2542C7.53795 16.213 7.56274 16.1572 7.563 16.099V13.9015C7.56274 13.8433 7.53795 13.7875 7.49403 13.7463C7.45011 13.7051 7.39061 13.6819 7.3285 13.6816H6.8595C6.79739 13.6819 6.73789 13.7051 6.69397 13.7463C6.65005 13.7875 6.62526 13.8433 6.625 13.9015V16.099C6.625 16.2195 6.7305 16.3188 6.8595 16.3188Z" fill="#00A84F"/>
<path d="M8.7345 16.3188H9.2035C9.26561 16.3186 9.32511 16.2953 9.36903 16.2542C9.41295 16.213 9.43774 16.1572 9.438 16.099V13.9015C9.43774 13.8433 9.41295 13.7875 9.36903 13.7463C9.32511 13.7051 9.26561 13.6819 9.2035 13.6816H8.7345C8.67239 13.6819 8.61289 13.7051 8.56897 13.7463C8.52505 13.7875 8.50026 13.8433 8.5 13.9015V16.099C8.5 16.2195 8.6055 16.3188 8.7345 16.3188Z" fill="#00A84F"/>
<path d="M10.6095 16.3188H11.0785C11.1406 16.3186 11.2001 16.2953 11.244 16.2542C11.2879 16.213 11.3127 16.1572 11.313 16.099V13.9015C11.3127 13.8433 11.2879 13.7875 11.244 13.7463C11.2001 13.7051 11.1406 13.6819 11.0785 13.6816H10.6095C10.5474 13.6819 10.4879 13.7051 10.444 13.7463C10.4001 13.7875 10.3753 13.8433 10.375 13.9015V16.099C10.375 16.2195 10.4805 16.3188 10.6095 16.3188Z" fill="#00A84F"/>
<path d="M12.4845 16.3188H12.9535C13.0156 16.3186 13.0751 16.2953 13.119 16.2542C13.1629 16.213 13.1877 16.1572 13.188 16.099V13.9015C13.1877 13.8433 13.1629 13.7875 13.119 13.7463C13.0751 13.7051 13.0156 13.6819 12.9535 13.6816H12.4845C12.4224 13.6819 12.3629 13.7051 12.319 13.7463C12.2751 13.7875 12.2503 13.8433 12.25 13.9015V16.099C12.25 16.2195 12.3555 16.3188 12.4845 16.3188Z" fill="#00A84F"/>
<path d="M14.3595 16.3188H14.8285C14.8906 16.3186 14.9501 16.2953 14.994 16.2542C15.0379 16.213 15.0627 16.1572 15.063 16.099V13.9015C15.0627 13.8433 15.0379 13.7875 14.994 13.7463C14.9501 13.7051 14.8906 13.6819 14.8285 13.6816H14.3595C14.2974 13.6819 14.2379 13.7051 14.194 13.7463C14.1501 13.7875 14.1253 13.8433 14.125 13.9015V16.099C14.125 16.2195 14.2305 16.3188 14.3595 16.3188Z" fill="#00A84F"/>
<path d="M6.8595 19.8345H7.3285C7.39061 19.8342 7.45011 19.811 7.49403 19.7698C7.53795 19.7286 7.56274 19.6728 7.563 19.6146V17.4171C7.56274 17.3589 7.53795 17.3031 7.49403 17.2619C7.45011 17.2208 7.39061 17.1975 7.3285 17.1973H6.8595C6.79739 17.1975 6.73789 17.2208 6.69397 17.2619C6.65005 17.3031 6.62526 17.3589 6.625 17.4171V19.6146C6.625 19.7351 6.7305 19.8345 6.8595 19.8345Z" fill="#00A84F"/>
<path d="M8.7345 19.8345H9.2035C9.26561 19.8342 9.32511 19.811 9.36903 19.7698C9.41295 19.7286 9.43774 19.6728 9.438 19.6146V17.4171C9.43774 17.3589 9.41295 17.3031 9.36903 17.2619C9.32511 17.2208 9.26561 17.1975 9.2035 17.1973H8.7345C8.67239 17.1975 8.61289 17.2208 8.56897 17.2619C8.52505 17.3031 8.50026 17.3589 8.5 17.4171V19.6146C8.5 19.7351 8.6055 19.8345 8.7345 19.8345Z" fill="#00A84F"/>
<path d="M10.6095 19.8345H11.0785C11.1406 19.8342 11.2001 19.811 11.244 19.7698C11.2879 19.7286 11.3127 19.6728 11.313 19.6146V17.4171C11.3127 17.3589 11.2879 17.3031 11.244 17.2619C11.2001 17.2208 11.1406 17.1975 11.0785 17.1973H10.6095C10.5474 17.1975 10.4879 17.2208 10.444 17.2619C10.4001 17.3031 10.3753 17.3589 10.375 17.4171V19.6146C10.375 19.7351 10.4805 19.8345 10.6095 19.8345Z" fill="#00A84F"/>
<path d="M6.8595 23.3501H7.3285C7.39061 23.3498 7.45011 23.3266 7.49403 23.2854C7.53795 23.2442 7.56274 23.1885 7.563 23.1302V20.9327C7.56274 20.8745 7.53795 20.8187 7.49403 20.7776C7.45011 20.7364 7.39061 20.7131 7.3285 20.7129H6.8595C6.79739 20.7131 6.73789 20.7364 6.69397 20.7776C6.65005 20.8187 6.62526 20.8745 6.625 20.9327V23.1302C6.625 23.2507 6.7305 23.3501 6.8595 23.3501Z" fill="#00A84F"/>
<path d="M8.7345 23.3501H9.2035C9.26561 23.3498 9.32511 23.3266 9.36903 23.2854C9.41295 23.2442 9.43774 23.1885 9.438 23.1302V20.9327C9.43774 20.8745 9.41295 20.8187 9.36903 20.7776C9.32511 20.7364 9.26561 20.7131 9.2035 20.7129H8.7345C8.67239 20.7131 8.61289 20.7364 8.56897 20.7776C8.52505 20.8187 8.50026 20.8745 8.5 20.9327V23.1302C8.5 23.2507 8.6055 23.3501 8.7345 23.3501Z" fill="#00A84F"/>
<path d="M10.6095 23.3501H11.0785C11.1406 23.3498 11.2001 23.3266 11.244 23.2854C11.2879 23.2442 11.3127 23.1885 11.313 23.1302V20.9327C11.3127 20.8745 11.2879 20.8187 11.244 20.7776C11.2001 20.7364 11.1406 20.7131 11.0785 20.7129H10.6095C10.5474 20.7131 10.4879 20.7364 10.444 20.7776C10.4001 20.8187 10.3753 20.8745 10.375 20.9327V23.1302C10.375 23.2507 10.4805 23.3501 10.6095 23.3501Z" fill="#00A84F"/>
<path d="M6.8595 12.8032H7.3285C7.39061 12.803 7.45011 12.7797 7.49403 12.7385C7.53795 12.6974 7.56274 12.6416 7.563 12.5834V10.3859C7.56274 10.3276 7.53795 10.2719 7.49403 10.2307C7.45011 10.1895 7.39061 10.1663 7.3285 10.166H6.8595C6.79739 10.1663 6.73789 10.1895 6.69397 10.2307C6.65005 10.2719 6.62526 10.3276 6.625 10.3859V12.5834C6.625 12.7038 6.7305 12.8032 6.8595 12.8032Z" fill="#00A84F"/>
<path d="M8.7345 12.8032H9.2035C9.26561 12.803 9.32511 12.7797 9.36903 12.7385C9.41295 12.6974 9.43774 12.6416 9.438 12.5834V10.3859C9.43774 10.3276 9.41295 10.2719 9.36903 10.2307C9.32511 10.1895 9.26561 10.1663 9.2035 10.166H8.7345C8.67239 10.1663 8.61289 10.1895 8.56897 10.2307C8.52505 10.2719 8.50026 10.3276 8.5 10.3859V12.5834C8.5 12.7038 8.6055 12.8032 8.7345 12.8032Z" fill="#00A84F"/>
<path d="M10.6095 12.8032H11.0785C11.1406 12.803 11.2001 12.7797 11.244 12.7385C11.2879 12.6974 11.3127 12.6416 11.313 12.5834V10.3859C11.3127 10.3276 11.2879 10.2719 11.244 10.2307C11.2001 10.1895 11.1406 10.1663 11.0785 10.166H10.6095C10.5474 10.1663 10.4879 10.1895 10.444 10.2307C10.4001 10.2719 10.3753 10.3276 10.375 10.3859V12.5834C10.375 12.7038 10.4805 12.8032 10.6095 12.8032Z" fill="#00A84F"/>
<path d="M12.4845 12.8032H12.9535C13.0156 12.803 13.0751 12.7797 13.119 12.7385C13.1629 12.6974 13.1877 12.6416 13.188 12.5834V10.3859C13.1877 10.3276 13.1629 10.2719 13.119 10.2307C13.0751 10.1895 13.0156 10.1663 12.9535 10.166H12.4845C12.4224 10.1663 12.3629 10.1895 12.319 10.2307C12.2751 10.2719 12.2503 10.3276 12.25 10.3859V12.5834C12.25 12.7038 12.3555 12.8032 12.4845 12.8032Z" fill="#00A84F"/>
<path d="M14.3595 12.8032H14.8285C14.8906 12.803 14.9501 12.7797 14.994 12.7385C15.0379 12.6974 15.0627 12.6416 15.063 12.5834V10.3859C15.0627 10.3276 15.0379 10.2719 14.994 10.2307C14.9501 10.1895 14.8906 10.1663 14.8285 10.166H14.3595C14.2974 10.1663 14.2379 10.1895 14.194 10.2307C14.1501 10.2719 14.1253 10.3276 14.125 10.3859V12.5834C14.125 12.7038 14.2305 12.8032 14.3595 12.8032Z" fill="#00A84F"/>
<path d="M16.2345 16.3188H16.7035C16.7656 16.3186 16.8251 16.2953 16.869 16.2542C16.9129 16.213 16.9377 16.1572 16.938 16.099V13.9015C16.9377 13.8433 16.9129 13.7875 16.869 13.7463C16.8251 13.7051 16.7656 13.6819 16.7035 13.6816H16.2345C16.1724 13.6819 16.1129 13.7051 16.069 13.7463C16.0251 13.7875 16.0003 13.8433 16 13.9015V16.099C16 16.2195 16.1055 16.3188 16.2345 16.3188Z" fill="#00A84F"/>
<path d="M16.2345 12.8032H16.7035C16.7656 12.803 16.8251 12.7797 16.869 12.7385C16.9129 12.6974 16.9377 12.6416 16.938 12.5834V10.3859C16.9377 10.3276 16.9129 10.2719 16.869 10.2307C16.8251 10.1895 16.7656 10.1663 16.7035 10.166H16.2345C16.1724 10.1663 16.1129 10.1895 16.069 10.2307C16.0251 10.2719 16.0003 10.3276 16 10.3859V12.5834C16 12.7038 16.1055 12.8032 16.2345 12.8032Z" fill="#00A84F"/>
<path d="M18.1095 16.3188H18.5785C18.6406 16.3186 18.7001 16.2953 18.744 16.2542C18.7879 16.213 18.8127 16.1572 18.813 16.099V13.9015C18.8127 13.8433 18.7879 13.7875 18.744 13.7463C18.7001 13.7051 18.6406 13.6819 18.5785 13.6816H18.1095C18.0474 13.6819 17.9879 13.7051 17.944 13.7463C17.9001 13.7875 17.8753 13.8433 17.875 13.9015V16.099C17.875 16.2195 17.9805 16.3188 18.1095 16.3188Z" fill="#00A84F"/>
<path d="M18.1095 12.8032H18.5785C18.6406 12.803 18.7001 12.7797 18.744 12.7385C18.7879 12.6974 18.8127 12.6416 18.813 12.5834V10.3859C18.8127 10.3276 18.7879 10.2719 18.744 10.2307C18.7001 10.1895 18.6406 10.1663 18.5785 10.166H18.1095C18.0474 10.1663 17.9879 10.1895 17.944 10.2307C17.9001 10.2719 17.8753 10.3276 17.875 10.3859V12.5834C17.875 12.7038 17.9805 12.8032 18.1095 12.8032Z" fill="#00A84F"/>
<path d="M19.9845 16.3188H20.4535C20.5156 16.3186 20.5751 16.2953 20.619 16.2542C20.6629 16.213 20.6877 16.1572 20.688 16.099V13.9015C20.6877 13.8433 20.6629 13.7875 20.619 13.7463C20.5751 13.7051 20.5156 13.6819 20.4535 13.6816H19.9845C19.9224 13.6819 19.8629 13.7051 19.819 13.7463C19.7751 13.7875 19.7503 13.8433 19.75 13.9015V16.099C19.75 16.2195 19.8555 16.3188 19.9845 16.3188Z" fill="#00A84F"/>
<path d="M19.9845 12.8032H20.4535C20.5156 12.803 20.5751 12.7797 20.619 12.7385C20.6629 12.6974 20.6877 12.6416 20.688 12.5834V10.3859C20.6877 10.3276 20.6629 10.2719 20.619 10.2307C20.5751 10.1895 20.5156 10.1663 20.4535 10.166H19.9845C19.9224 10.1663 19.8629 10.1895 19.819 10.2307C19.7751 10.2719 19.7503 10.3276 19.75 10.3859V12.5834C19.75 12.7038 19.8555 12.8032 19.9845 12.8032Z" fill="#00A84F"/>
<path d="M12.875 5.18555V6.2843C12.875 6.48586 13.0515 6.65039 13.2655 6.65039H14.047C14.1504 6.65002 14.2495 6.61133 14.3227 6.54276C14.3958 6.47418 14.4371 6.38128 14.4375 6.2843V5.18555H15.6095C15.8245 5.18555 16 5.02055 16 4.81945V4.0868C15.9997 3.98978 15.9585 3.89681 15.8853 3.8282C15.8122 3.7596 15.713 3.72095 15.6095 3.7207H14.4375V2.62195C14.4371 2.52497 14.3958 2.43207 14.3227 2.36349C14.2495 2.29492 14.1504 2.25623 14.047 2.25586H13.2655C13.1621 2.25623 13.063 2.29492 12.9898 2.36349C12.9167 2.43207 12.8754 2.52497 12.875 2.62195V3.7207H11.703C11.5995 3.72095 11.5003 3.7596 11.4272 3.8282C11.354 3.89681 11.3128 3.98978 11.3125 4.0868V4.81945C11.3125 5.02102 11.4885 5.18555 11.703 5.18555H12.875Z" fill="#00A84F"/>
</svg>
