<svg width="32" height="30" viewBox="0 0 32 30" fill="none" xmlns="http://www.w3.org/2000/svg">
<path d="M16.0003 16C15.7174 16 15.4461 16.1054 15.246 16.2929C15.046 16.4804 14.9336 16.7348 14.9336 17C14.9336 17.2652 15.046 17.5196 15.246 17.7071C15.4461 17.8946 15.7174 18 16.0003 18C16.2832 18 16.5545 17.8946 16.7545 17.7071C16.9545 17.5196 17.0669 17.2652 17.0669 17C17.0669 16.7348 16.9545 16.4804 16.7545 16.2929C16.5545 16.1054 16.2832 16 16.0003 16Z" fill="#00A84F"/>
<path fill-rule="evenodd" clip-rule="evenodd" d="M25.6 12.382L17.0667 8.382V6H23.4667V0H14.9333V8.382L6.4 12.382V16H2.13333V28H0V30H12.8V22H19.2V30H32V28H29.8667V16H25.6V12.382ZM27.7333 28V18H25.6V28H27.7333ZM6.4 28H4.26667V18H6.4V28ZM12.8 17C12.8 16.2044 13.1371 15.4413 13.7373 14.8787C14.3374 14.3161 15.1513 14 16 14C16.8487 14 17.6626 14.3161 18.2627 14.8787C18.8629 15.4413 19.2 16.2044 19.2 17C19.2 17.7956 18.8629 18.5587 18.2627 19.1213C17.6626 19.6839 16.8487 20 16 20C15.1513 20 14.3374 19.6839 13.7373 19.1213C13.1371 18.5587 12.8 17.7956 12.8 17Z" fill="#00A84F"/>
<path d="M17.0669 30V24H14.9336V30H17.0669Z" fill="#00A84F"/>
</svg>
