<svg width="32" height="30" viewBox="0 0 32 30" fill="none" xmlns="http://www.w3.org/2000/svg">
<path d="M25.2 20.6245H6.82C6.6 20.6245 6.42 20.8354 6.42 21.0932L6.415 23.9057C6.415 24.1635 6.595 24.3745 6.815 24.3745H25.2C25.42 24.3745 25.6 24.1635 25.6 23.9057V21.0932C25.6 20.8354 25.42 20.6245 25.2 20.6245ZM25.2 26.2495H6.805C6.585 26.2495 6.405 26.4604 6.405 26.7182L6.4 29.5307C6.4 29.7885 6.58 29.9995 6.8 29.9995H25.2C25.42 29.9995 25.6 29.7885 25.6 29.5307V26.7182C25.6 26.4604 25.42 26.2495 25.2 26.2495ZM25.2 14.9995H6.83C6.61 14.9995 6.43 15.2104 6.43 15.4682L6.425 18.2807C6.425 18.5386 6.605 18.7495 6.825 18.7495H25.2C25.42 18.7495 25.6 18.5386 25.6 18.2807V15.4682C25.6 15.2104 25.42 14.9995 25.2 14.9995ZM30.525 6.85498L16.92 0.216312C16.6276 0.0741515 16.3141 0.000976563 15.9975 0.000976562C15.6809 0.000976563 15.3674 0.0741515 15.075 0.216312L1.475 6.85498C0.585 7.29443 0 8.31396 0 9.45068V29.5307C0 29.7885 0.18 29.9995 0.4 29.9995H4.4C4.62 29.9995 4.8 29.7885 4.8 29.5307V14.9995C4.8 13.9682 5.53 13.1245 6.43 13.1245H25.57C26.47 13.1245 27.2 13.9682 27.2 14.9995V29.5307C27.2 29.7885 27.38 29.9995 27.6 29.9995H31.6C31.82 29.9995 32 29.7885 32 29.5307V9.45068C32 8.31396 31.415 7.29443 30.525 6.85498Z" fill="#00A84F"/>
</svg>
