<svg width="32" height="30" viewBox="0 0 32 30" fill="none" xmlns="http://www.w3.org/2000/svg">
<path d="M27.0906 4.97754L16.4719 1.58496C16.3437 1.54395 16.1719 1.52344 16 1.52344C15.8281 1.52344 15.6562 1.54395 15.5281 1.58496L4.90938 4.97754C4.65 5.05957 4.4375 5.34082 4.4375 5.59863V19.7314C4.4375 19.9893 4.61563 20.3291 4.83125 20.4902L15.6031 28.3594C15.7125 28.4385 15.8531 28.4795 15.9969 28.4795C16.1406 28.4795 16.2844 28.4385 16.3906 28.3594L27.1625 20.4902C27.3781 20.332 27.5562 19.9922 27.5562 19.7314V5.59863C27.5625 5.34082 27.35 5.0625 27.0906 4.97754ZM21.7031 9.98145L15.0594 18.5566C15.0127 18.6166 14.9515 18.6653 14.8809 18.6989C14.8104 18.7325 14.7323 18.7501 14.6531 18.7501C14.574 18.7501 14.4959 18.7325 14.4253 18.6989C14.3547 18.6653 14.2936 18.6166 14.2469 18.5566L10.2969 13.459C10.1781 13.3037 10.2969 13.0869 10.5 13.0869H12.225C12.3844 13.0869 12.5375 13.1602 12.6313 13.2803L14.6531 15.8877L19.3687 9.7998C19.4625 9.67969 19.6125 9.60645 19.775 9.60645H21.5C21.7031 9.60938 21.8219 9.82617 21.7031 9.98145Z" fill="#00A84F"/>
</svg>
