<svg width="22" height="25" viewBox="0 0 22 25" fill="none" xmlns="http://www.w3.org/2000/svg">
<path d="M11 0.166992C13.7848 0.166992 16.4555 1.27324 18.4246 3.24237C20.3938 5.2115 21.5 7.88222 21.5 10.667C21.5 15.014 18.1867 19.5687 11.7 24.4337C11.4981 24.5851 11.2524 24.667 11 24.667C10.7476 24.667 10.5019 24.5851 10.3 24.4337C3.81333 19.5687 0.5 15.014 0.5 10.667C0.5 7.88222 1.60625 5.2115 3.57538 3.24237C5.54451 1.27324 8.21523 0.166992 11 0.166992ZM11 7.16699C10.0717 7.16699 9.1815 7.53574 8.52513 8.19212C7.86875 8.8485 7.5 9.73874 7.5 10.667C7.5 11.5953 7.86875 12.4855 8.52513 13.1419C9.1815 13.7982 10.0717 14.167 11 14.167C11.9283 14.167 12.8185 13.7982 13.4749 13.1419C14.1313 12.4855 14.5 11.5953 14.5 10.667C14.5 9.73874 14.1313 8.8485 13.4749 8.19212C12.8185 7.53574 11.9283 7.16699 11 7.16699Z" fill="#00A84F"/>
</svg>
