<svg width="32" height="30" viewBox="0 0 32 30" fill="none" xmlns="http://www.w3.org/2000/svg">
<g clip-path="url(#clip0)">
<path fill-rule="evenodd" clip-rule="evenodd" d="M28.1621 5.68359H26.2948V3.81422H24.3823V0.0585938H22.6167V3.81422H20.8153V5.68359H18.8896V9.43359H16.9414V30.0005H30.084V9.43359H28.1621V5.68359ZM24.4125 7.44234H26.2948V9.31734H24.4125V7.44234ZM20.6478 7.47047H22.5301V9.34547H20.6478V7.47047ZM20.7061 26.168H18.8238V24.293H20.7061V26.168ZM20.7061 22.4198H18.8238V20.5448H20.7061V22.4198ZM20.7061 18.6717H18.8238V16.7967H20.7061V18.6717ZM20.7061 15.0005H18.8238V13.1255H20.7061V15.0005ZM24.4708 26.168H22.5885V24.293H24.4708V26.168ZM24.4708 22.4198H22.5885V20.5448H24.4708V22.4198ZM24.4708 18.6717H22.5885V16.7967H24.4708V18.6717ZM24.4708 15.0005H22.5885V13.1255H24.4708V15.0005ZM28.2355 26.168H26.3532V24.293H28.2355V26.168ZM28.2355 22.4198H26.3532V20.5448H28.2355V22.4198ZM28.2355 18.6717H26.3532V16.7967H28.2355V18.6717ZM28.2355 14.9048H26.3532V13.0298H28.2355V14.9048Z" fill="#00A84F"/>
<path fill-rule="evenodd" clip-rule="evenodd" d="M13.1035 5.71664H11.1515V3.84727H9.36517V0.0878906H7.61834V3.84727H5.67387V5.71664H3.83105V9.46289H1.88281V29.9998H15.0254V9.46289H13.1035V5.71664ZM9.33128 7.42664H11.2136V9.30164H9.33128V7.42664ZM5.64752 7.42664H7.52987V9.30164H5.64752V7.42664ZM5.64752 26.2366H3.76517V24.3616H5.64752V26.2366ZM5.64752 22.4791H3.76517V20.6041H5.64752V22.4791ZM5.64752 18.6954H3.76517V16.8204H5.64752V18.6954ZM5.64752 14.9998H3.76517V13.1248H5.64752V14.9998ZM9.41222 26.1916H7.52987V24.3166H9.41222V26.1916ZM9.41222 22.451H7.52987V20.576H9.41222V22.451ZM9.41222 18.7141H7.52987V16.8391H9.41222V18.7141ZM9.41222 14.9529H7.52987V13.0779H9.41222V14.9529ZM13.1769 26.1729H11.2946V24.2979H13.1769V26.1729ZM13.1769 22.4266H11.2946V20.5516H13.1769V22.4266ZM13.1769 18.6804H11.2946V16.8054H13.1769V18.6804ZM13.1769 14.9154H11.2946V13.0404H13.1769V14.9154Z" fill="#00A84F"/>
</g>
<defs>
<clipPath id="clip0">
<rect width="32" height="30" fill="white"/>
</clipPath>
</defs>
</svg>
