<svg width="32" height="30" viewBox="0 0 32 30" fill="none" xmlns="http://www.w3.org/2000/svg">
<path d="M16.3533 19.3207C16.7787 19.4997 17.2394 19.5932 17.7058 19.5954C19.9158 19.5954 21.7138 17.5343 21.7138 15.0012C21.7138 12.4676 19.9158 10.4055 17.7058 10.4055C17.2368 10.4077 16.7736 10.5024 16.3463 10.6835C15.2228 11.2695 14.3683 12.3855 14.0333 13.7402H11.0868L11.0873 13.7355C11.1018 13.6366 11.1108 13.5363 11.1283 13.4388C11.1714 13.1994 11.2248 12.9617 11.2883 12.7263L11.2913 12.7123C12.1753 9.4207 14.9113 7.01367 18.1448 7.01367C22.0923 7.01367 25.3018 10.5963 25.3018 15.0007C25.3018 19.4037 22.0918 22.9859 18.1448 22.9859C14.9113 22.9859 12.1758 20.5798 11.2913 17.2896C11.2883 17.2798 11.2873 17.269 11.2843 17.2591C11.2238 17.0309 11.1698 16.7993 11.1278 16.563C11.1093 16.4627 11.1003 16.3591 11.0858 16.2584L11.0778 16.2016H14.0203C14.3463 17.5854 15.2098 18.7277 16.3533 19.3207Z" fill="#00A84F"/>
<path d="M1.914 15.5944C1.455 15.5963 1.455 14.3475 1.914 14.3456H2.0935L1 9.03187L3.011 10.0162L4.4335 14.3461H5.499L4.096 10.5473L6.273 11.6123L7.617 14.3461H8.662L7.299 12.0309L6.5465 11.663C7.872 5.51484 12.769 0.9375 18.5945 0.9375C25.4355 0.9375 31 7.24594 31 15C31 22.7541 25.4355 29.0625 18.5945 29.0625C12.752 29.0625 7.8435 24.4589 6.536 18.2841L7.299 17.9109L8.662 15.5958H7.617L6.2725 18.33L4.096 19.3945L5.4995 15.5958H4.4335L3.011 19.9256L1 20.91L2.094 15.5953C2.034 15.5953 1.9735 15.5953 1.914 15.5944ZM12.6785 23.5687C14.2215 24.8766 16.1285 25.6509 18.19 25.6509C23.3155 25.6514 27.4845 20.873 27.4845 15C27.4845 9.12609 23.3155 4.34766 18.1905 4.34766C16.129 4.34766 14.2225 5.12203 12.679 6.42984C10.871 8.03719 9.593 10.3641 9.16 13.0242L9.2455 13.0659L10.2915 14.3452H16.2425C16.438 13.6561 16.927 13.1658 17.504 13.1658C18.252 13.1658 18.8585 13.9861 18.8585 15C18.8585 16.012 18.252 16.8333 17.504 16.8333C16.91 16.8333 16.4115 16.313 16.2285 15.5939H10.291L9.245 16.875L9.152 16.9205C9.5765 19.6022 10.8585 21.9506 12.6785 23.5687ZM2.493 15.3075L17.0515 15.307C17.491 15.3075 17.491 14.6334 17.0515 14.6334H2.2245C1.784 14.6344 1.784 15.3075 2.2245 15.307L2.493 15.3075Z" fill="#00A84F"/>
</svg>
