<svg width="32" height="30" viewBox="0 0 32 30" fill="none" xmlns="http://www.w3.org/2000/svg">
<path d="M25.321 2.5H12.013C10.5317 2.5 9.33305 3.62375 9.33305 5.0125V12.0588L3.06371 17.8612C2.87587 18.0354 2.74745 18.258 2.69476 18.5007C2.64206 18.7434 2.66747 18.9953 2.76776 19.2245C2.86804 19.4536 3.03868 19.6497 3.25802 19.7878C3.47736 19.9258 3.73551 19.9997 3.99971 20V26.25C3.99971 26.5815 4.14019 26.8995 4.39024 27.1339C4.64029 27.3683 4.97943 27.5 5.33305 27.5H26.6664C27.02 27.5 27.3591 27.3683 27.6092 27.1339C27.8592 26.8995 27.9997 26.5815 27.9997 26.25V5.01125C27.9997 3.62375 26.8024 2.5 25.321 2.5ZM14.5624 18.8888V25H6.66638V18.04L10.649 14.3538L14.5624 18.1075V18.8888ZM17.333 11.25H14.6664V8.75H17.333V11.25ZM22.6664 21.25H19.9997V18.75H22.6664V21.25ZM22.6664 16.25H19.9997V13.75H22.6664V16.25ZM22.6664 11.25H19.9997V8.75H22.6664V11.25Z" fill="#00A84F"/>
<path d="M9.33301 18.75H11.9997V21.25H9.33301V18.75Z" fill="#00A84F"/>
</svg>
