<svg width="32" height="30" viewBox="0 0 32 30" fill="none" xmlns="http://www.w3.org/2000/svg">
<path d="M20 16.25H22V19.775L25.2533 21.5375L24.2533 23.1625L20 20.8625V16.25ZM25.3333 10H6.66667V23.75H12.8933C12.32 22.6125 12 21.3375 12 20C12 17.6794 12.9833 15.4538 14.7337 13.8128C16.484 12.1719 18.858 11.25 21.3333 11.25C22.76 11.25 24.12 11.55 25.3333 12.0875V10ZM6.66667 26.25C5.95942 26.25 5.28115 25.9866 4.78105 25.5178C4.28095 25.0489 4 24.413 4 23.75V6.25C4 4.8625 5.18667 3.75 6.66667 3.75H8V1.25H10.6667V3.75H21.3333V1.25H24V3.75H25.3333C26.0406 3.75 26.7189 4.01339 27.219 4.48223C27.719 4.95107 28 5.58696 28 6.25V13.875C29.6533 15.45 30.6667 17.6125 30.6667 20C30.6667 22.3206 29.6833 24.5462 27.933 26.1872C26.1827 27.8281 23.8087 28.75 21.3333 28.75C18.7867 28.75 16.48 27.8 14.8 26.25H6.66667ZM21.3333 13.9375C19.6183 13.9375 17.9734 14.5762 16.7607 15.7132C15.548 16.8501 14.8667 18.3921 14.8667 20C14.8667 23.35 17.76 26.0625 21.3333 26.0625C22.1825 26.0625 23.0234 25.9057 23.808 25.601C24.5926 25.2964 25.3055 24.8498 25.906 24.2868C26.5064 23.7239 26.9828 23.0556 27.3078 22.32C27.6327 21.5845 27.8 20.7961 27.8 20C27.8 16.65 24.9067 13.9375 21.3333 13.9375Z" fill="#00A84F"/>
</svg>
