<svg width="32" height="30" viewBox="0 0 32 30" fill="none" xmlns="http://www.w3.org/2000/svg">
<g clip-path="url(#clip0)">
<path d="M32.0004 12V11C32.01 10.9203 32.01 10.8397 32.0004 10.76L30.0004 2.88V0H2.00039V2.88L0.000390171 10.76C-0.00924464 10.8397 -0.00924464 10.9203 0.000390171 11V12C0.00460365 12.6981 0.191425 13.3829 0.542289 13.9863C0.893152 14.5898 1.39584 15.091 2.00039 15.44V28H0.000390171V30H32.0004V28H30.0004V15.44C30.6049 15.091 31.1076 14.5898 31.4585 13.9863C31.8094 13.3829 31.9962 12.6981 32.0004 12ZM28.2204 4L29.7204 10H25.8804L25.1304 4H28.2204ZM20.0004 4H23.1204L23.8704 10H20.0004V4ZM24.0004 12C24.0004 12.5304 23.7897 13.0391 23.4146 13.4142C23.0395 13.7893 22.5308 14 22.0004 14C21.47 14 20.9613 13.7893 20.5862 13.4142C20.2111 13.0391 20.0004 12.5304 20.0004 12H24.0004ZM14.0004 4H18.0004V10H14.0004V4ZM8.88039 4H12.0004V10H8.13039L8.88039 4ZM12.0004 12C12.0004 12.5304 11.7897 13.0391 11.4146 13.4142C11.0395 13.7893 10.5308 14 10.0004 14C9.46996 14 8.96125 13.7893 8.58618 13.4142C8.2111 13.0391 8.00039 12.5304 8.00039 12H12.0004ZM3.78039 4H6.87039L6.12039 10H2.28039L3.78039 4ZM2.00039 12H6.00039C6.00039 12.5304 5.78968 13.0391 5.4146 13.4142C5.03953 13.7893 4.53082 14 4.00039 14C3.46996 14 2.96125 13.7893 2.58618 13.4142C2.2111 13.0391 2.00039 12.5304 2.00039 12ZM13.0004 28H5.00039V16H13.0004V28ZM14.0004 12H18.0004C18.0004 12.5304 17.7897 13.0391 17.4146 13.4142C17.0395 13.7893 16.5308 14 16.0004 14C15.47 14 14.9612 13.7893 14.5862 13.4142C14.2111 13.0391 14.0004 12.5304 14.0004 12ZM27.0004 23H16.0004V16H27.0004V23ZM28.0004 14C27.47 14 26.9613 13.7893 26.5862 13.4142C26.2111 13.0391 26.0004 12.5304 26.0004 12H30.0004C30.0004 12.5304 29.7897 13.0391 29.4146 13.4142C29.0395 13.7893 28.5308 14 28.0004 14Z" fill="#00A84F"/>
<path d="M11 22C11.5523 22 12 21.5523 12 21C12 20.4477 11.5523 20 11 20C10.4477 20 10 20.4477 10 21C10 21.5523 10.4477 22 11 22Z" fill="#00A84F"/>
</g>
<defs>
<clipPath id="clip0">
<rect width="32" height="30" fill="white"/>
</clipPath>
</defs>
</svg>
