<svg width="32" height="30" viewBox="0 0 32 30" fill="none" xmlns="http://www.w3.org/2000/svg">
<path d="M30.997 16.8872V8.92688C30.996 8.81824 30.952 8.71384 30.8735 8.63391C30.0885 6.88641 25.515 5.77641 20.318 5.38125V3.135L22.1355 2.25609L20.318 1.37719V1.15734C20.3188 1.09994 20.2953 1.04458 20.2527 1.00338C20.21 0.962175 20.1517 0.938487 20.0905 0.9375C20.0294 0.938609 19.9712 0.962351 19.9286 1.00354C19.8861 1.04473 19.8627 1.10002 19.8635 1.15734V5.34844C18.6536 5.26727 17.441 5.22428 16.228 5.21953V3.135L18.046 2.25609L16.228 1.37719V1.15734C16.2275 1.03594 16.125 0.9375 16.0005 0.9375C15.876 0.9375 15.7735 1.03594 15.7735 1.15734V5.21953C14.5585 5.22422 13.335 5.26781 12.138 5.34844V3.135L13.9555 2.25609L12.138 1.37719V1.15734C12.1387 1.09998 12.1151 1.04469 12.0725 1.00351C12.0299 0.962335 11.9717 0.938609 11.9105 0.9375C11.7855 0.9375 11.683 1.03594 11.683 1.15734V5.38125C6.0685 5.80781 1.1825 7.06969 1.0135 9.06656C1.011 9.08297 1.003 9.09703 1.003 9.11484V16.8877H1V23.5697H12.247L10.8405 27.0853H10.3715L11.544 24.0089H8.4965L7.0905 27.0853H6.6215L8.028 24.0089H4.7475L3.341 27.0853H2.8725L4.2785 24.0089H1V29.0625H31V16.8872H30.997ZM30.07 9.04406C30.0455 9.16031 29.9895 9.20625 29.964 9.22453C29.782 9.36 29.5425 9.48938 29.272 9.61547C28.6905 8.81625 27.0695 8.11312 24.7855 7.60312L25.4555 6.95484C28.2525 7.55016 29.886 8.35594 30.07 9.04406ZM10.0925 10.3856L9.6535 11.2223C8.59347 11.1364 7.53773 11.0091 6.489 10.8408C10.2885 9.35625 20.8815 9.40312 25.284 10.6983C24.3705 10.8548 23.364 10.9903 22.2835 11.1009L21.9085 10.3856H10.0925ZM21.85 11.1427C20.119 11.3062 18.2195 11.408 16.2275 11.4347V10.8253H21.684L21.85 11.1427ZM15.7735 10.8253V11.4384C15.5735 11.4403 15.376 11.4441 15.1745 11.4441H15.1725C13.3565 11.4441 11.648 11.377 10.09 11.2584L10.3165 10.8258H15.7735V10.8253ZM23.0385 9.18375C23.07 9.18937 23.102 9.195 23.134 9.19969L24.3645 8.01C26.479 8.47172 28.0385 9.10641 28.7545 9.83156C28.3075 9.99984 27.7905 10.1597 27.197 10.3069C26.145 9.85406 24.724 9.46875 23.0385 9.18375ZM16.2275 6.09844C19.801 6.11109 22.798 6.42469 25.081 6.87891L24.414 7.52344C22.1605 7.05609 19.321 6.77203 16.2275 6.75797V6.09844ZM16.2275 8.63766V7.21406C19.144 7.22766 21.8295 7.49344 23.991 7.93172L22.7465 9.135C22.843 9.14766 22.934 9.165 23.026 9.18141C20.991 8.83828 18.578 8.63906 15.9905 8.63766C16.07 8.63766 16.149 8.63672 16.2275 8.63766ZM15.9395 8.63766C11.0255 8.64047 6.7505 9.35906 4.484 10.4208C3.9515 10.2811 3.478 10.1302 3.089 9.9675C3.7395 9.18328 5.3745 8.49703 7.631 8.00578L8.856 9.18984C8.9865 9.17062 9.1105 9.14391 9.2445 9.12609L8.0045 7.92656C10.1695 7.48875 12.8565 7.22531 15.7735 7.21359V8.63719L15.9395 8.63766ZM15.7735 6.09844V6.75797C12.6795 6.77016 9.8385 7.05281 7.582 7.51875L6.92 6.87891C9.203 6.42469 12.1995 6.11109 15.7735 6.09844ZM6.545 6.95484L7.21 7.59844C4.79 8.13562 3.113 8.89125 2.619 9.74672C2.3405 9.59812 2.1215 9.44109 1.9675 9.2775C1.955 9.26391 1.9205 9.22734 1.9195 9.11344C2.0085 8.41031 3.6535 7.57031 6.545 6.95484ZM18.6945 21.1828V21.5916H17.818V18.5156H14.1825V21.592H13.2405V21.1355C13.2422 21.0246 13.1985 20.9172 13.1185 20.8356C13.0384 20.7539 12.928 20.704 12.81 20.6963C5.2935 20.3128 1.912 19.0322 1.912 18.2456V17.1703C4.593 18.7861 11.216 19.252 12.808 19.342L12.83 18.8222C7.585 18.5255 3.47 17.648 1.912 16.5844V14.9733C4.593 16.5891 11.216 17.055 12.808 17.145L12.83 16.6252C7.585 16.3284 3.47 15.4509 1.912 14.3873V12.7762C4.593 14.392 11.216 14.858 12.808 14.948L12.83 14.4281C7.585 14.1314 3.47 13.2539 1.912 12.1903V10.358C4.246 11.7961 10.1125 12.3234 15.1725 12.3234H15.174C20.8575 12.323 27.4775 11.6634 30.088 10.1977V12.0066C28.593 13.3397 24.693 14.2505 19.1715 14.4806L19.1875 15C21.9915 14.8837 27.6705 14.4239 30.088 12.6375V14.2031C28.593 15.5363 24.693 16.447 19.1715 16.6772L19.1875 17.197C21.9915 17.0808 27.6705 16.6209 30.088 14.8345V16.4002C28.593 17.7333 24.693 18.6441 19.1715 18.8742L19.1875 19.3941C21.9915 19.2778 27.6705 18.818 30.088 17.0316V17.7942C30.088 19.3139 25.6845 20.4994 19.1315 20.7436C18.887 20.7525 18.6945 20.947 18.6945 21.1828ZM30.997 24.0089H27.7155L29.122 27.0853H28.6535L27.247 24.0089H23.966L25.372 27.0853H24.903L23.4965 24.0089H20.45L21.6215 27.0853H21.1525L19.746 23.5697H30.996V24.0089H30.997Z" fill="#00A84F"/>
<path d="M18.5227 15.4057C18.3852 14.9412 17.8642 14.5605 17.3637 14.5605H14.6372C14.1372 14.5605 13.6162 14.9412 13.4787 15.4057L13.0697 16.7918C13.047 16.8698 13.0372 16.9506 13.0407 17.0313C13.1239 16.9457 13.2251 16.8773 13.3379 16.8302C13.4507 16.7832 13.5728 16.7586 13.6962 16.758H18.2407C18.5337 16.758 18.7922 16.8959 18.9592 17.1054C18.9728 17.0002 18.9638 16.8936 18.9327 16.7918L18.5227 15.4057Z" fill="#00A84F"/>
<path d="M2.81323 13.4632L2.35973 13.2616C2.23723 13.2068 2.13524 13.2719 2.13674 13.4083L2.14223 13.9924C2.14373 14.1283 2.24573 14.284 2.36873 14.3388L2.82223 14.5408C2.94523 14.5961 3.04673 14.531 3.04523 14.3941L3.03973 13.8096C3.03973 13.6741 2.93623 13.518 2.81323 13.4632Z" fill="#00A84F"/>
<path d="M10.5309 15.0771L10.0534 15.0532C9.92188 15.0466 9.81838 15.1174 9.82238 15.2097L9.85638 15.8838C9.86088 15.9766 9.97138 16.0582 10.1034 16.0643L10.5814 16.0891C10.7124 16.0957 10.8164 16.0249 10.8124 15.9321L10.7784 15.2585C10.7739 15.1657 10.6624 15.0841 10.5309 15.0771Z" fill="#00A84F"/>
<path d="M6.4432 14.5229L5.9742 14.4432C5.8447 14.4207 5.7417 14.4807 5.7452 14.5754L5.7692 15.2635C5.7727 15.3582 5.8807 15.4534 6.0092 15.4759L6.4792 15.5556C6.6087 15.5781 6.7112 15.5181 6.7082 15.4234L6.6842 14.7352C6.6807 14.6406 6.5727 14.5454 6.4432 14.5229Z" fill="#00A84F"/>
<path d="M28.9667 14.612L29.4202 14.4104C29.5427 14.3556 29.6447 14.2 29.6462 14.0645L29.6517 13.4795C29.6537 13.344 29.5517 13.2779 29.4292 13.3328L28.9752 13.5334C28.8517 13.5882 28.7482 13.7448 28.7482 13.8803L28.7422 14.4657C28.7417 14.6012 28.8432 14.6678 28.9667 14.612Z" fill="#00A84F"/>
<path d="M21.2072 16.16L21.6847 16.1351C21.8167 16.1286 21.9282 16.047 21.9322 15.9547L21.9662 15.2806C21.9707 15.1883 21.8667 15.1175 21.7352 15.1245L21.2572 15.1489C21.1257 15.1554 21.0152 15.2361 21.0107 15.3289L20.9767 16.0029C20.9727 16.0958 21.0762 16.1661 21.2072 16.16Z" fill="#00A84F"/>
<path d="M25.3086 15.6267L25.7786 15.547C25.9076 15.524 26.0156 15.4289 26.0186 15.3347L26.0426 14.6461C26.0461 14.5519 25.9431 14.4923 25.8141 14.5144L25.3446 14.5945C25.2151 14.6165 25.1066 14.7117 25.1036 14.8069L25.0791 15.495C25.0766 15.5897 25.1796 15.6487 25.3086 15.6267Z" fill="#00A84F"/>
</svg>
