<svg width="100" height="49" viewBox="0 0 100 49" fill="none" xmlns="http://www.w3.org/2000/svg">
<g clip-path="url(#clip0)">
<path d="M-0.000181591 45.4109V45.3102C-0.00292922 44.7632 0.114084 44.2222 0.342622 43.7253C0.576831 43.2189 0.951667 42.7907 1.42235 42.4919C1.691 42.3146 1.98332 42.1762 2.29065 42.0808C2.62444 41.9858 2.97001 41.9388 3.317 41.941C3.74044 41.9432 4.16163 42.0027 4.56916 42.1178C5.00827 42.2452 5.40754 42.4829 5.72894 42.8085C6.08237 43.171 6.30919 43.6383 6.37555 44.1405H5.4313C5.3887 43.9315 5.30507 43.733 5.18526 43.5566C5.06546 43.3801 4.91186 43.2293 4.73338 43.1127C4.35463 42.8702 3.9122 42.7463 3.46275 42.7571L3.17947 42.7756L2.90646 42.8044C2.54023 42.8669 2.19643 43.0234 1.90862 43.2587C1.62081 43.494 1.39881 43.7999 1.26429 44.1467C1.10757 44.55 1.03222 44.9804 1.0426 45.413C1.03329 45.8358 1.09008 46.2575 1.21092 46.6628C1.31322 46.9869 1.47778 47.2879 1.69536 47.5488C1.89322 47.7594 2.1294 47.9304 2.39123 48.0524C2.52477 48.1033 2.66202 48.1439 2.80177 48.1737C2.94148 48.2033 3.08387 48.2185 3.22669 48.2189L3.26569 48.2004C3.82041 48.2287 4.36638 48.0533 4.80112 47.7071C5.18696 47.3539 5.4338 46.8741 5.49699 46.3545H6.46587C6.40911 46.8338 6.23725 47.2923 5.96501 47.6906C5.69229 48.093 5.32035 48.4181 4.88528 48.6341C4.65265 48.748 4.40922 48.8382 4.15862 48.9034C3.89799 48.9672 3.63045 48.9983 3.36216 48.9959C2.86111 49.0065 2.36316 48.9149 1.89858 48.7267C1.4973 48.5644 1.14049 48.3086 0.857853 47.9805C0.586629 47.6614 0.383984 47.2899 0.262566 46.8889C0.17939 46.6651 0.114852 46.4348 0.0696107 46.2003C0.0293627 45.9723 0.00944139 45.7411 0.010082 45.5096L-0.000181591 45.4109Z" fill="#404141"/>
<path d="M14.1411 46.6628C14.0118 47.0763 13.811 47.4638 13.5478 47.8078C13.2585 48.1838 12.8804 48.4819 12.4476 48.6753C11.9259 48.9016 11.3615 49.0124 10.7931 49C10.2238 49.0142 9.65842 48.9033 9.13654 48.6753C8.70348 48.4822 8.32533 48.184 8.03629 47.8078C7.77482 47.4617 7.57357 47.0739 7.441 46.6607C7.3228 46.2743 7.26194 45.8726 7.26036 45.4685C7.26104 45.0636 7.32192 44.6611 7.441 44.2742C7.5632 43.8599 7.76546 43.4736 8.03629 43.1374C8.33362 42.7678 8.7142 42.474 9.1468 42.2802C9.66355 42.0517 10.2242 41.9401 10.789 41.9534C11.3538 41.9387 11.9148 42.0504 12.4311 42.2802C12.8681 42.4697 13.2516 42.7641 13.5478 43.1374C13.8127 43.4775 14.0143 43.8626 14.1431 44.2742C14.2628 44.661 14.3244 45.0635 14.3258 45.4685C14.3224 45.8734 14.2601 46.2758 14.1411 46.6628ZM13.0203 44.0522C12.8311 43.6545 12.53 43.3208 12.154 43.0922C11.7429 42.8571 11.2745 42.741 10.8013 42.7571C10.325 42.7403 9.85372 42.8593 9.44239 43.1004C9.06712 43.3341 8.76598 43.6699 8.5741 44.0686C8.36558 44.5052 8.26156 44.9846 8.2703 45.4685C8.26621 45.9526 8.3722 46.4313 8.58025 46.8684C8.77138 47.274 9.07677 47.6148 9.45882 47.8489C9.86491 48.0881 10.3304 48.2071 10.8013 48.1922C11.2753 48.2058 11.7437 48.0869 12.154 47.8489C12.5306 47.6119 12.8313 47.2716 13.0203 46.8684C13.2205 46.4264 13.3241 45.9466 13.3241 45.4613C13.3241 44.9759 13.2205 44.4962 13.0203 44.0542V44.0522Z" fill="#404141"/>
<path d="M20.2991 42.1116H21.2372V48.815H20.1369L16.442 43.4066V48.815H15.4834V42.1116H16.6453L20.2991 47.5364V42.1116Z" fill="#404141"/>
<path d="M27.1633 44.0788C27.1656 43.9324 27.1412 43.7868 27.0914 43.6491C27.0356 43.5177 26.9609 43.3951 26.8698 43.2853C26.6819 43.0924 26.4542 42.943 26.2026 42.8474C25.9242 42.7636 25.6353 42.72 25.3446 42.7179C24.9505 42.7119 24.5605 42.7977 24.2053 42.9687C24.0355 43.0541 23.8954 43.1889 23.8034 43.3555C23.7115 43.522 23.672 43.7125 23.6901 43.902C23.6901 44.3419 23.9795 44.6194 24.5584 44.7242L26.6275 45.1641C27.7175 45.4108 28.2697 46.0152 28.2697 46.971C28.2858 47.4058 28.1335 47.83 27.8448 48.1551C27.5518 48.4661 27.1778 48.689 26.7651 48.7985C26.3337 48.933 25.8847 49.0023 25.4329 49.0041C24.5173 49.0041 23.8003 48.8115 23.2816 48.4264C22.763 48.0413 22.5057 47.4534 22.5098 46.6627H23.4171C23.4033 46.9922 23.5074 47.3158 23.7106 47.5754C23.9029 47.8106 24.1587 47.9855 24.4475 48.079C24.7631 48.1851 25.0939 48.2386 25.4267 48.2373C25.7191 48.2357 26.0103 48.2013 26.295 48.1345C26.5609 48.078 26.8098 47.9597 27.0217 47.7892C27.12 47.7065 27.1976 47.6018 27.2482 47.4837C27.2988 47.3655 27.3211 47.2371 27.3131 47.1088C27.3249 46.9109 27.2793 46.7139 27.1818 46.5414C27.0637 46.3794 26.8978 46.2586 26.7076 46.1961C26.407 46.078 26.0965 45.9872 25.7798 45.9247L24.7 45.7007C24.3782 45.6349 24.0634 45.5386 23.7599 45.4129C23.4721 45.3079 23.2176 45.1276 23.023 44.8907C22.8238 44.644 22.7236 44.3318 22.7417 44.015C22.7389 43.6619 22.8296 43.3144 23.0045 43.0078C23.1961 42.6792 23.4823 42.4163 23.8256 42.2534C24.2663 42.0448 24.7507 41.9454 25.2378 41.9635C26.0192 41.9635 26.6152 42.0786 27.0258 42.3089C27.3751 42.4843 27.6581 42.7685 27.8325 43.1188C27.8735 43.2133 27.9228 43.3552 27.9844 43.5484L28.0049 43.6039C28.0432 43.7628 28.0631 43.9256 28.0644 44.089L27.1633 44.0788Z" fill="#404141"/>
<path d="M28.8979 42.1116H34.7933V42.9338H32.3301V48.817H31.3407V42.9318H28.8979V42.1116Z" fill="#404141"/>
<path d="M35.8133 42.1034H39.2639C39.4614 42.1017 39.6584 42.1231 39.851 42.1671C40.0416 42.1966 40.2277 42.2498 40.4052 42.3254C40.7303 42.4515 41.0144 42.6648 41.2263 42.9421C41.3718 43.149 41.4701 43.3855 41.5143 43.6347C41.5585 43.8839 41.5475 44.1398 41.4821 44.3843C41.4167 44.6288 41.2985 44.8559 41.1358 45.0496C40.9732 45.2434 40.77 45.399 40.5407 45.5054C40.7861 45.5633 41.0017 45.7097 41.1463 45.9165C41.2796 46.1248 41.3625 46.3613 41.3885 46.6072C41.4193 46.9166 41.433 47.2275 41.4295 47.5384C41.4213 47.8019 41.4482 48.0653 41.5096 48.3216C41.5254 48.4021 41.5628 48.4768 41.6178 48.5376C41.6728 48.5985 41.7432 48.6432 41.8216 48.667V48.817H40.6105C40.5095 48.4786 40.4651 48.1257 40.4791 47.7728C40.4844 47.4397 40.4679 47.1067 40.4299 46.7758C40.4021 46.5619 40.3022 46.3638 40.1466 46.2146C39.9783 46.0419 39.6765 45.9535 39.2393 45.9535H36.776V48.817H35.8072L35.8133 42.1034ZM39.2639 45.1704C39.5063 45.1767 39.7464 45.1216 39.9618 45.01C40.1424 44.9208 40.2904 44.777 40.3847 44.5989C40.4344 44.5136 40.475 44.4234 40.5058 44.3296C40.5343 44.2392 40.5481 44.1448 40.5469 44.05C40.5606 43.8911 40.5385 43.7311 40.4821 43.5818C40.4258 43.4326 40.3367 43.298 40.2214 43.1878C40.1061 43.0777 39.9676 42.9949 39.8161 42.9456C39.6646 42.8963 39.5039 42.8818 39.346 42.903H36.7822V45.1786L39.2639 45.1704Z" fill="#404141"/>
<path d="M42.5546 42.1116H43.544V46.4839C43.5353 46.792 43.606 47.0971 43.7493 47.3699C43.8815 47.635 44.0982 47.8484 44.3651 47.9763C44.6841 48.1328 45.0364 48.209 45.3915 48.1983C45.736 48.2071 46.078 48.1367 46.3911 47.9927C46.6688 47.8664 46.9015 47.6585 47.0583 47.3966C47.2131 47.1273 47.2932 46.8214 47.2902 46.5106V42.1116H48.2796V46.6134C48.2854 47.0521 48.1579 47.4822 47.9143 47.8468C47.6507 48.2265 47.2827 48.5214 46.8551 48.6957C46.3651 48.9085 45.8351 49.013 45.3012 49.002C44.839 49.0045 44.3815 48.9092 43.9587 48.7225C43.5443 48.5597 43.1872 48.2779 42.9323 47.9126C42.6768 47.5434 42.5426 47.1036 42.5485 46.6545L42.5546 42.1116Z" fill="#404141"/>
<path d="M49.4909 45.4109V45.3102C49.4872 44.763 49.6043 44.2218 49.8338 43.7253C50.0674 43.2185 50.4423 42.7902 50.9135 42.4919C51.1821 42.3146 51.4745 42.1762 51.7818 42.0808C52.1155 41.9856 52.4611 41.9385 52.8081 41.941C53.2316 41.943 53.6528 42.0025 54.0603 42.1178C54.5 42.2451 54.9 42.4828 55.2221 42.8085C55.5749 43.1712 55.801 43.6385 55.8667 44.1405H54.9183C54.8761 43.9316 54.7928 43.7331 54.6734 43.5567C54.5539 43.3802 54.4006 43.2293 54.2225 43.1127C53.8458 42.8723 53.4066 42.7485 52.96 42.7571L52.6768 42.7756L52.4058 42.8043C52.0434 42.8662 51.7029 43.0197 51.4164 43.2504C51.1239 43.4875 50.8977 43.7962 50.7595 44.1467C50.6028 44.5499 50.5275 44.9803 50.5378 45.4129C50.5271 45.8356 50.5825 46.2573 50.702 46.6628C50.8027 46.9876 50.9674 47.2889 51.1865 47.5487C51.3843 47.7594 51.6205 47.9303 51.8824 48.0524C52.0158 48.1036 52.1531 48.1441 52.2929 48.1737C52.4319 48.2032 52.5736 48.2183 52.7158 48.2189L52.7568 48.2004C53.3109 48.2283 53.8561 48.0529 54.2902 47.707C54.6774 47.3546 54.9251 46.8745 54.9881 46.3544H55.957C55.9021 46.8351 55.7324 47.2956 55.4623 47.6967C55.1891 48.0987 54.8173 48.4236 54.3826 48.6403C54.1499 48.7541 53.9065 48.8443 53.6559 48.9096C53.3946 48.9733 53.1264 49.0044 52.8574 49.0021C52.3564 49.0122 51.8585 48.9206 51.3938 48.7328C50.9934 48.57 50.6374 48.3142 50.3551 47.9866C50.084 47.6672 49.8807 47.2958 49.7578 46.895C49.6762 46.6709 49.6124 46.4406 49.5669 46.2064C49.5249 45.9786 49.5043 45.7474 49.5053 45.5157L49.4909 45.4109Z" fill="#404141"/>
<path d="M56.5047 42.1116H62.4021V42.9338H59.9389V48.817H58.9495V42.9318H56.5067L56.5047 42.1116Z" fill="#404141"/>
<path d="M64.4284 48.815H63.4389V42.1116H64.4284V48.815Z" fill="#404141"/>
<path d="M72.5939 46.6628C72.4663 47.0728 72.2683 47.4575 72.0089 47.7995C71.7196 48.1755 71.3416 48.4736 70.9087 48.667C69.8474 49.1001 68.6589 49.1001 67.5976 48.667C67.1642 48.4745 66.7859 48.1763 66.4974 47.7995C66.2359 47.4534 66.0347 47.0656 65.9021 46.6525C65.7839 46.2661 65.723 45.8644 65.7215 45.4602C65.7221 45.0553 65.783 44.6528 65.9021 44.2659C66.0243 43.8516 66.2266 43.4654 66.4974 43.1291C66.7943 42.7591 67.175 42.4652 67.6079 42.2719C68.1247 42.0434 68.6853 41.9318 69.2501 41.9451C69.8149 41.9305 70.3759 42.0421 70.8922 42.2719C71.3232 42.4637 71.7009 42.758 71.9925 43.1291C72.2581 43.4688 72.4598 43.854 72.5878 44.2659C72.7075 44.6527 72.7691 45.0552 72.7705 45.4602C72.7705 45.8675 72.711 46.2727 72.5939 46.6628ZM71.4732 44.0521C71.2834 43.6542 70.9816 43.3205 70.6049 43.0921C70.1956 42.8532 69.7278 42.7336 69.2542 42.7468C68.7798 42.7317 68.3108 42.8515 67.9014 43.0921C67.5262 43.3259 67.225 43.6617 67.0331 44.0603C66.8246 44.497 66.7206 44.9763 66.7293 45.4602C66.7224 45.9459 66.8263 46.4269 67.0331 46.8663C67.2243 47.2719 67.5297 47.6127 67.9117 47.8468C68.3178 48.086 68.7833 48.205 69.2542 48.1901C69.7295 48.208 70.2004 48.0919 70.6131 47.855C70.9907 47.6187 71.2922 47.2782 71.4814 46.8745C71.6816 46.4325 71.7852 45.9528 71.7852 45.4674C71.7852 44.9821 71.6816 44.5023 71.4814 44.0603L71.4732 44.0521Z" fill="#404141"/>
<path d="M78.752 42.1116H79.6901V48.815H78.5899L74.8847 43.4066V48.815H73.9364V42.1116H75.0982L78.752 47.5364V42.1116Z" fill="#404141"/>
<path d="M85.1607 48.815H84.1713V42.1116H85.1607V48.815Z" fill="#404141"/>
<path d="M90.9863 42.1116H91.9244V48.815H90.8241L87.1292 43.4066V48.815H86.1809V42.1116H87.3427L90.9965 47.5364L90.9863 42.1116Z" fill="#404141"/>
<path d="M93.1254 45.4109V45.3101C93.1227 44.7631 93.2397 44.2221 93.4682 43.7253C93.7024 43.2189 94.0772 42.7907 94.5479 42.4919C94.8166 42.3146 95.1089 42.1762 95.4162 42.0808C95.75 41.9856 96.0956 41.9386 96.4426 41.941C96.866 41.9432 97.2872 42.0026 97.6947 42.1178C98.1339 42.2451 98.5331 42.4829 98.8545 42.8084C99.208 43.171 99.4348 43.6382 99.5011 44.1405H98.5507C98.5089 43.9314 98.4258 43.7328 98.3063 43.5563C98.1868 43.3798 98.0333 43.229 97.8549 43.1127C97.475 42.8737 97.0326 42.7535 96.5842 42.7673L96.301 42.7858L96.0279 42.8146C95.6617 42.8771 95.3179 43.0337 95.0301 43.2689C94.7423 43.5042 94.5203 43.8101 94.3858 44.1569C94.2283 44.5601 94.1522 44.9904 94.162 45.4232C94.154 45.8463 94.2122 46.268 94.3344 46.673C94.4359 46.9975 94.6006 47.2986 94.8189 47.559C95.0168 47.7697 95.2529 47.9406 95.5148 48.0626C95.6483 48.1135 95.7856 48.1541 95.9253 48.1839C96.065 48.2136 96.2074 48.2287 96.3502 48.2291L96.3892 48.2106C96.9439 48.2389 97.4899 48.0635 97.9247 47.7173C98.3105 47.3641 98.5573 46.8843 98.6205 46.3647H99.5894C99.5355 46.8456 99.3657 47.3063 99.0947 47.707C98.822 48.1094 98.45 48.4344 98.015 48.6505C97.7823 48.7644 97.5389 48.8546 97.2883 48.9198C97.027 48.9837 96.7588 49.0148 96.4898 49.0123C95.9888 49.0223 95.4909 48.9307 95.0262 48.743C94.6258 48.5803 94.2698 48.3245 93.9875 47.9968C93.7163 47.6778 93.5137 47.3063 93.3922 46.9053C93.3091 46.6815 93.2445 46.4512 93.1993 46.2167C93.159 45.9887 93.1391 45.7575 93.1398 45.526L93.1254 45.4109Z" fill="#404141"/>
<path d="M1.28482 10.122H3.64955V13.9783C4.91128 10.9209 6.45766 9.39221 8.28868 9.39221C9.49978 9.39221 10.3838 9.82663 10.9408 10.6955C11.5507 11.6464 12.0143 12.6837 12.3161 13.7728C13.0838 12.1735 13.7756 11.0436 14.3914 10.383C15.0072 9.72248 15.855 9.39221 16.9347 9.39221C17.5505 9.39221 18.2423 9.63546 19.01 10.122C19.7216 10.6441 20.3374 11.6034 20.8574 12.9998C21.3775 14.3963 21.6368 16.2566 21.6354 18.5809V37.4125H19.0901V19.7731C19.0901 15.5659 18.1479 13.4617 16.2635 13.4603C15.6107 13.4603 15.0058 13.8084 14.4489 14.5046C13.8356 15.3242 13.4057 16.2665 13.1885 17.2673C12.8656 18.4224 12.7101 19.618 12.7266 20.8174V37.4125H10.1915V18.5726C10.1915 17.1132 10.0089 15.8962 9.64347 14.9219C9.27809 13.9475 8.67254 13.4603 7.82682 13.4603C7.25206 13.4603 6.65472 13.7214 6.04096 14.2435C5.44567 14.7999 4.92702 15.7736 4.485 17.1645C4.04298 18.5555 3.82197 20.3467 3.82197 22.538V37.4125H1.28482V10.122Z" fill="#00A84F"/>
<path d="M25.2073 16.7473C25.6877 14.6272 26.4752 12.8532 27.57 11.4252C28.6456 10.0685 29.9238 9.39084 31.4045 9.39221C32.9413 9.39221 34.2379 10.0699 35.2944 11.4252C36.3522 12.8176 37.1404 14.5916 37.6591 16.7473C38.1882 19.0389 38.4493 21.3843 38.4371 23.7364C38.4416 26.088 38.1806 28.4326 37.6591 30.7255C37.1404 32.9511 36.3522 34.76 35.2944 36.1524C34.2365 37.5447 32.9406 38.2388 31.4065 38.2347C29.8875 38.2347 28.5998 37.5392 27.5433 36.1483C26.4485 34.7573 25.661 32.9483 25.1807 30.7214C24.6805 28.4255 24.4293 26.0822 24.4314 23.7323C24.4179 21.3816 24.6783 19.0374 25.2073 16.7473ZM27.4263 28.4335C27.7 30.104 28.1516 31.4608 28.7811 32.5036C29.4544 33.6507 30.3289 34.2249 31.4045 34.2263C32.5184 34.2263 33.4025 33.6521 34.0566 32.5036C34.7773 31.2498 35.2472 29.8673 35.4401 28.4335C35.6879 26.8808 35.8129 25.3109 35.8137 23.7384C35.8142 22.1489 35.6892 20.5618 35.4401 18.992C35.1664 17.39 34.7052 16.0504 34.0566 14.9732C33.4079 13.8961 32.5246 13.3589 31.4065 13.3616C29.83 13.3616 28.7058 14.4402 28.0339 16.5972C27.348 18.9169 27.0083 21.3254 27.026 23.7446C27.0319 25.3159 27.1658 26.884 27.4263 28.4335Z" fill="#00A84F"/>
<path d="M41.3191 10.122H43.6818V13.9783C44.9503 10.9182 46.4974 9.38809 48.323 9.38809C49.5327 9.38809 50.416 9.82251 50.973 10.6914C51.5872 11.6432 52.0537 12.6828 52.3565 13.7748C53.127 12.1755 53.8188 11.0456 54.4318 10.3851C55.0449 9.72453 55.8906 9.39426 56.969 9.39426C57.5848 9.39426 58.2745 9.63682 59.0443 10.124C59.7545 10.6461 60.3703 11.6054 60.8917 13.0019C61.4131 14.3983 61.6724 16.2587 61.6697 18.5829V37.4125H59.1305V19.7731C59.1305 15.5659 58.189 13.4617 56.306 13.4603C55.6532 13.4603 55.0483 13.8084 54.4914 14.5045C53.8751 15.3235 53.4424 16.2658 53.2228 17.2673C52.8978 18.4221 52.7402 19.6177 52.7548 20.8174V37.4125H50.2238V18.5726C50.2238 17.1131 50.0418 15.8962 49.6777 14.9218C49.3137 13.9475 48.7082 13.4603 47.8611 13.4603C47.2836 13.4603 46.6883 13.7214 46.0752 14.2435C45.4786 14.7999 44.9592 15.7736 44.5172 17.1645C44.0752 18.5555 43.8542 20.3466 43.8542 22.5379V37.4125H41.3191V10.122Z" fill="#00A84F"/>
<path d="M78.1529 28.8507C77.9951 30.0878 77.7349 31.3097 77.3749 32.5036C76.952 34.0672 76.3082 35.3541 75.4433 36.364C75.2449 36.6113 75.0228 36.8385 74.7803 37.0424L74.6366 37.1472C74.3956 37.3623 74.1352 37.5543 73.8586 37.7208C73.2825 38.0634 72.4368 38.2347 71.3215 38.2347C70.1716 38.234 69.0673 37.785 68.2424 36.9828C67.3584 36.1482 66.6091 34.9655 65.9947 33.4348C65.0518 31.0009 64.581 28.0442 64.5824 24.5647C64.5824 23.4876 64.6303 22.3399 64.7261 21.1216C64.8077 20.0363 64.9516 18.9567 65.1572 17.8881C65.5225 15.8694 66.061 14.1996 66.7726 12.8785C67.3432 11.767 68.1249 10.7775 69.0737 9.96568C69.8122 9.33026 70.7522 8.97836 71.7258 8.97281C72.4731 8.97271 73.2042 9.19057 73.8299 9.59978C74.5911 10.1468 75.2376 10.8382 75.7327 11.6348C76.3588 12.6377 76.8346 13.7272 77.145 14.8683C77.9305 17.7572 78.3239 21.236 78.3253 25.3048H67.2858C67.2858 28.1909 67.6608 30.3993 68.4107 31.9301C69.1606 33.4608 70.2465 34.2262 71.6684 34.2262C72.3786 34.2262 73.0416 33.9302 73.6574 33.3382C74.2976 32.7121 74.7814 31.9438 75.0697 31.0955C75.3566 30.3798 75.5217 29.621 75.5582 28.8507H78.1529ZM75.6732 21.6005C75.68 20.5336 75.5934 19.4682 75.4146 18.4164C75.2429 17.503 74.9724 16.6111 74.6078 15.7564C73.9346 14.227 72.8966 13.4616 71.4939 13.4602C70.6865 13.4602 69.9851 13.8433 69.3899 14.6093C68.6869 15.5075 68.1679 16.5358 67.8626 17.6352C67.4834 18.9229 67.2892 20.258 67.2858 21.6005H75.6732Z" fill="#00A84F"/>
<path d="M81.3511 10.1219H83.7733V14.0872C83.9568 13.5034 84.2083 12.9431 84.5225 12.4181C84.9529 11.6449 85.4967 10.9409 86.1359 10.3295C86.7623 9.72327 87.6008 9.38678 88.4719 9.39217C88.9819 9.38252 89.4888 9.47399 89.9633 9.66133C90.4379 9.84866 90.8707 10.1282 91.2369 10.4837C91.9882 11.1785 92.5842 12.2563 93.0248 13.7172C93.4565 15.4043 93.6602 17.1417 93.6304 18.883V37.4124H91.0932V20.5049C91.0932 18.3492 90.8818 16.6273 90.459 15.3391C90.0361 14.0865 89.2581 13.4603 88.125 13.4603C87.3368 13.4603 86.6067 13.8083 85.9348 14.5045C85.2027 15.3838 84.6804 16.4186 84.4076 17.5304C84.0474 18.9272 83.8727 20.3656 83.8882 21.8082V37.4124H81.3511V10.1219Z" fill="#00A84F"/>
<path d="M99.9996 10.2267V37.4124H97.405V10.2267H99.9996Z" fill="#00A84F"/>
</g>
<defs>
<clipPath id="clip0">
<rect width="100" height="49" fill="white"/>
</clipPath>
</defs>
</svg>
