<svg width="210" height="140" viewBox="0 0 210 140" fill="none" xmlns="http://www.w3.org/2000/svg">
<rect opacity="0.9" width="210" height="140" fill="url(#paint0_linear)"/>
<g clip-path="url(#clip0)">
<path d="M15.0001 120.554V120.373C14.9951 119.391 15.2058 118.419 15.6171 117.527C16.0387 116.617 16.7134 115.848 17.5606 115.312C18.0442 114.993 18.5704 114.745 19.1236 114.573C19.7244 114.403 20.3464 114.318 20.971 114.322C21.7332 114.326 22.4913 114.433 23.2249 114.64C24.0153 114.869 24.734 115.296 25.3125 115.88C25.9487 116.531 26.357 117.371 26.4764 118.273H24.7768C24.7001 117.897 24.5495 117.541 24.3339 117.224C24.1182 116.907 23.8418 116.636 23.5205 116.427C22.8387 115.991 22.0424 115.769 21.2334 115.788L20.7235 115.821L20.232 115.873C19.5728 115.985 18.954 116.266 18.4359 116.689C17.9179 117.111 17.5183 117.661 17.2761 118.284C16.994 119.008 16.8584 119.781 16.8771 120.558C16.8603 121.317 16.9626 122.075 17.1801 122.802C17.3642 123.384 17.6604 123.925 18.0521 124.393C18.4082 124.772 18.8333 125.079 19.3046 125.298C19.545 125.389 19.792 125.462 20.0436 125.516C20.2951 125.569 20.5514 125.596 20.8084 125.597L20.8786 125.564C21.8772 125.615 22.8599 125.3 23.6424 124.678C24.3369 124.043 24.7813 123.182 24.895 122.249H26.639C26.5368 123.109 26.2275 123.933 25.7374 124.648C25.2465 125.371 24.577 125.955 23.7939 126.343C23.3752 126.547 22.937 126.709 22.4859 126.826C22.0168 126.941 21.5352 126.997 21.0523 126.992C20.1504 127.011 19.2541 126.847 18.4179 126.509C17.6955 126.218 17.0533 125.758 16.5445 125.169C16.0563 124.596 15.6916 123.928 15.473 123.208C15.3233 122.806 15.2071 122.393 15.1257 121.972C15.0533 121.562 15.0174 121.147 15.0186 120.731L15.0001 120.554Z" fill="#F4F4F4"/>
<path d="M40.4546 122.802C40.2219 123.545 39.8605 124.241 39.3868 124.859C38.866 125.534 38.1855 126.069 37.4063 126.417C36.4673 126.823 35.4514 127.022 34.4282 127C33.4036 127.025 32.3859 126.826 31.4465 126.417C30.667 126.07 29.9863 125.534 29.466 124.859C28.9954 124.237 28.6331 123.541 28.3945 122.799C28.1817 122.105 28.0722 121.383 28.0693 120.657C28.0706 119.93 28.1801 119.207 28.3945 118.513C28.6144 117.769 28.9785 117.075 29.466 116.471C30.0012 115.807 30.6862 115.28 31.4649 114.932C32.3951 114.521 33.4043 114.321 34.4208 114.345C35.4376 114.318 36.4473 114.519 37.3767 114.932C38.1632 115.272 38.8536 115.801 39.3868 116.471C39.8635 117.082 40.2264 117.773 40.4583 118.513C40.6738 119.207 40.7846 119.93 40.7871 120.657C40.7809 121.385 40.6689 122.107 40.4546 122.802ZM38.4372 118.114C38.0966 117.4 37.5547 116.8 36.8779 116.39C36.1378 115.968 35.2948 115.759 34.443 115.788C33.5857 115.758 32.7374 115.972 31.997 116.405C31.3215 116.824 30.7794 117.427 30.4341 118.143C30.0587 118.928 29.8715 119.788 29.8872 120.657C29.8799 121.527 30.0707 122.387 30.4451 123.172C30.7892 123.9 31.3389 124.512 32.0266 124.932C32.7575 125.362 33.5954 125.576 34.443 125.549C35.2962 125.573 36.1393 125.36 36.8779 124.932C37.5558 124.507 38.097 123.896 38.4372 123.172C38.7976 122.378 38.984 121.516 38.984 120.645C38.984 119.773 38.7976 118.911 38.4372 118.118V118.114Z" fill="#F4F4F4"/>
<path d="M51.5383 114.629H53.2269V126.668H51.2464L44.5956 116.955V126.668H42.8701V114.629H44.9614L51.5383 124.371V114.629Z" fill="#F4F4F4"/>
<path d="M63.894 118.162C63.8981 117.899 63.8542 117.638 63.7647 117.39C63.6642 117.154 63.5297 116.934 63.3656 116.737C63.0274 116.391 62.6176 116.122 62.1648 115.951C61.6636 115.8 61.1436 115.722 60.6203 115.718C59.911 115.707 59.209 115.861 58.5696 116.168C58.2639 116.322 58.0117 116.564 57.8462 116.863C57.6807 117.162 57.6096 117.504 57.6422 117.844C57.6422 118.634 58.1632 119.133 59.2052 119.321L62.9296 120.111C64.8916 120.554 65.8855 121.64 65.8855 123.356C65.9144 124.137 65.6404 124.899 65.1207 125.483C64.5933 126.041 63.9201 126.442 63.1772 126.638C62.4007 126.88 61.5924 127.004 60.7792 127.007C59.1313 127.007 57.8405 126.662 56.9069 125.97C55.9734 125.278 55.5103 124.223 55.5177 122.802H57.1508C57.1261 123.394 57.3134 123.975 57.6792 124.442C58.0252 124.864 58.4857 125.178 59.0056 125.346C59.5736 125.537 60.169 125.633 60.7681 125.63C61.2944 125.628 61.8186 125.566 62.331 125.446C62.8096 125.344 63.2577 125.132 63.639 124.826C63.816 124.677 63.9557 124.489 64.0468 124.277C64.1379 124.065 64.178 123.834 64.1637 123.604C64.1848 123.248 64.1027 122.894 63.9272 122.585C63.7147 122.294 63.4162 122.077 63.0737 121.964C62.5327 121.752 61.9738 121.589 61.4036 121.477L59.4601 121.075C58.8808 120.957 58.3142 120.784 57.7678 120.558C57.2498 120.369 56.7917 120.046 56.4414 119.62C56.0829 119.177 55.9024 118.616 55.9352 118.047C55.9301 117.413 56.0933 116.789 56.4081 116.239C56.753 115.649 57.2681 115.176 57.8861 114.884C58.6795 114.509 59.5513 114.331 60.4282 114.363C61.8347 114.363 62.9074 114.57 63.6464 114.983C64.2752 115.298 64.7847 115.809 65.0985 116.438C65.1724 116.608 65.2611 116.862 65.3719 117.209L65.4089 117.309C65.4777 117.595 65.5137 117.887 65.516 118.18L63.894 118.162Z" fill="#F4F4F4"/>
<path d="M67.0166 114.629H77.6283V116.106H73.1944V126.671H71.4135V116.102H67.0166V114.629Z" fill="#F4F4F4"/>
<path d="M79.4642 114.614H85.6753C86.0308 114.611 86.3854 114.649 86.732 114.728C87.0751 114.781 87.4102 114.877 87.7297 115.013C88.3148 115.239 88.8262 115.622 89.2076 116.12C89.4695 116.492 89.6464 116.917 89.726 117.364C89.8055 117.812 89.7857 118.271 89.668 118.71C89.5503 119.149 89.3376 119.557 89.0448 119.905C88.752 120.253 88.3863 120.533 87.9735 120.724C88.4153 120.828 88.8033 121.091 89.0635 121.462C89.3035 121.836 89.4528 122.261 89.4995 122.703C89.555 123.258 89.5796 123.816 89.5734 124.375C89.5586 124.848 89.6071 125.321 89.7175 125.781C89.746 125.926 89.8133 126.06 89.9123 126.169C90.0112 126.279 90.138 126.359 90.2791 126.402V126.671H88.0992C87.9174 126.063 87.8375 125.43 87.8627 124.796C87.8721 124.198 87.8425 123.6 87.774 123.005C87.7241 122.621 87.5442 122.265 87.2641 121.997C86.9611 121.687 86.418 121.529 85.631 121.529H81.1971V126.671H79.4531L79.4642 114.614ZM85.6753 120.122C86.1117 120.133 86.5438 120.034 86.9316 119.834C87.2566 119.674 87.5229 119.416 87.6927 119.096C87.7822 118.943 87.8552 118.78 87.9107 118.612C87.9619 118.45 87.9869 118.28 87.9846 118.11C88.0093 117.825 87.9695 117.537 87.8681 117.269C87.7667 117.001 87.6063 116.759 87.3988 116.562C87.1913 116.364 86.942 116.215 86.6692 116.127C86.3965 116.038 86.1073 116.012 85.8231 116.05H81.2082V120.137L85.6753 120.122Z" fill="#F4F4F4"/>
<path d="M91.5983 114.629H93.3793V122.481C93.3636 123.035 93.4909 123.582 93.7488 124.072C93.9867 124.548 94.3768 124.932 94.8572 125.161C95.4314 125.443 96.0655 125.579 96.7047 125.56C97.3248 125.576 97.9403 125.45 98.5041 125.191C99.0038 124.964 99.4226 124.591 99.7049 124.12C99.9835 123.637 100.128 123.087 100.122 122.529V114.629H101.903V122.714C101.914 123.502 101.684 124.274 101.246 124.929C100.771 125.611 100.109 126.14 99.3391 126.454C98.4572 126.836 97.5032 127.023 96.5421 127.004C95.7102 127.008 94.8868 126.837 94.1256 126.502C93.3798 126.209 92.7371 125.703 92.2782 125.047C91.8182 124.384 91.5767 123.594 91.5872 122.788L91.5983 114.629Z" fill="#F4F4F4"/>
<path d="M104.084 120.554V120.373C104.077 119.391 104.288 118.419 104.701 117.527C105.122 116.617 105.797 115.847 106.645 115.312C107.128 114.993 107.654 114.745 108.208 114.573C108.808 114.403 109.43 114.318 110.055 114.322C110.817 114.326 111.575 114.433 112.309 114.64C113.1 114.869 113.82 115.296 114.4 115.88C115.035 116.532 115.442 117.371 115.56 118.273H113.853C113.777 117.897 113.627 117.541 113.412 117.224C113.197 116.907 112.922 116.636 112.601 116.427C111.923 115.995 111.132 115.773 110.328 115.788L109.819 115.821L109.331 115.873C108.679 115.984 108.066 116.26 107.55 116.674C107.024 117.1 106.616 117.654 106.368 118.284C106.085 119.008 105.95 119.781 105.969 120.558C105.949 121.317 106.049 122.074 106.264 122.802C106.445 123.386 106.742 123.927 107.136 124.394C107.492 124.772 107.917 125.079 108.389 125.298C108.629 125.39 108.876 125.463 109.128 125.516C109.378 125.569 109.633 125.596 109.889 125.597L109.963 125.564C110.96 125.614 111.941 125.299 112.723 124.678C113.42 124.045 113.866 123.183 113.979 122.249H115.723C115.624 123.112 115.319 123.939 114.833 124.659C114.341 125.381 113.672 125.965 112.889 126.354C112.47 126.558 112.032 126.72 111.581 126.837C111.111 126.952 110.628 127.008 110.144 127.004C109.242 127.022 108.346 126.857 107.509 126.52C106.789 126.228 106.148 125.768 105.64 125.18C105.152 124.606 104.786 123.939 104.564 123.22C104.418 122.817 104.303 122.403 104.221 121.983C104.145 121.574 104.108 121.158 104.11 120.742L104.084 120.554Z" fill="#F4F4F4"/>
<path d="M116.709 114.629H127.324V116.106H122.891V126.671H121.11V116.102H116.713L116.709 114.629Z" fill="#F4F4F4"/>
<path d="M130.971 126.668H129.19V114.629H130.971V126.668Z" fill="#F4F4F4"/>
<path d="M145.669 122.802C145.44 123.539 145.083 124.23 144.616 124.844C144.096 125.519 143.415 126.055 142.636 126.402C140.725 127.18 138.586 127.18 136.676 126.402C135.896 126.056 135.215 125.521 134.695 124.844C134.225 124.222 133.863 123.526 133.624 122.784C133.411 122.09 133.302 121.369 133.299 120.643C133.3 119.916 133.41 119.193 133.624 118.498C133.844 117.754 134.208 117.06 134.695 116.456C135.23 115.792 135.915 115.264 136.694 114.917C137.625 114.507 138.634 114.306 139.65 114.33C140.667 114.304 141.677 114.504 142.606 114.917C143.382 115.261 144.062 115.79 144.587 116.456C145.065 117.066 145.428 117.758 145.658 118.498C145.874 119.193 145.985 119.915 145.987 120.643C145.987 121.374 145.88 122.102 145.669 122.802ZM143.652 118.114C143.31 117.399 142.767 116.8 142.089 116.39C141.352 115.961 140.51 115.746 139.658 115.77C138.804 115.743 137.96 115.958 137.223 116.39C136.547 116.81 136.005 117.413 135.66 118.129C135.285 118.913 135.097 119.774 135.113 120.643C135.1 121.515 135.288 122.379 135.66 123.168C136.004 123.896 136.554 124.509 137.241 124.929C137.972 125.359 138.81 125.572 139.658 125.545C140.513 125.578 141.361 125.369 142.104 124.944C142.783 124.519 143.326 123.908 143.667 123.183C144.027 122.389 144.213 121.527 144.213 120.656C144.213 119.784 144.027 118.923 143.667 118.129L143.652 118.114Z" fill="#F4F4F4"/>
<path d="M156.754 114.629H158.443V126.668H156.462L149.793 116.955V126.668H148.086V114.629H150.177L156.754 124.371V114.629Z" fill="#F4F4F4"/>
<path d="M168.29 126.668H166.509V114.629H168.29V126.668Z" fill="#F4F4F4"/>
<path d="M178.776 114.629H180.464V126.668H178.484L171.833 116.955V126.668H170.126V114.629H172.217L178.794 124.371L178.776 114.629Z" fill="#F4F4F4"/>
<path d="M182.626 120.554V120.373C182.621 119.391 182.832 118.419 183.243 117.527C183.665 116.617 184.339 115.848 185.187 115.312C185.67 114.993 186.196 114.745 186.75 114.573C187.35 114.403 187.972 114.318 188.597 114.322C189.359 114.326 190.117 114.433 190.851 114.64C191.641 114.869 192.36 115.296 192.938 115.88C193.575 116.531 193.983 117.371 194.102 118.273H192.392C192.316 117.897 192.167 117.54 191.952 117.223C191.737 116.906 191.46 116.636 191.139 116.427C190.455 115.998 189.659 115.782 188.852 115.807L188.342 115.84L187.851 115.891C187.191 116.004 186.573 116.285 186.055 116.707C185.536 117.13 185.137 117.679 184.895 118.302C184.611 119.026 184.474 119.799 184.492 120.576C184.477 121.336 184.582 122.093 184.802 122.821C184.985 123.404 185.281 123.944 185.674 124.412C186.03 124.79 186.456 125.097 186.927 125.316C187.167 125.408 187.414 125.481 187.666 125.534C187.917 125.587 188.174 125.615 188.431 125.615L188.501 125.582C189.499 125.633 190.482 125.318 191.265 124.696C191.959 124.062 192.404 123.2 192.517 122.267H194.261C194.164 123.131 193.859 123.958 193.371 124.678C192.88 125.4 192.21 125.984 191.427 126.372C191.009 126.577 190.57 126.739 190.119 126.856C189.649 126.971 189.166 127.026 188.682 127.022C187.78 127.04 186.884 126.875 186.048 126.538C185.327 126.246 184.686 125.787 184.178 125.198C183.69 124.625 183.325 123.958 183.106 123.238C182.957 122.836 182.841 122.422 182.759 122.001C182.687 121.592 182.651 121.177 182.652 120.761L182.626 120.554Z" fill="#F4F4F4"/>
<path d="M17.3125 57.1778H21.569V64.1035C23.8401 58.6126 26.6236 55.8672 29.9194 55.8672C32.0994 55.8672 33.6907 56.6474 34.6932 58.2078C35.7911 59.9155 36.6257 61.7785 37.1688 63.7343C38.5507 60.8621 39.7959 58.8329 40.9043 57.6466C42.0128 56.4603 43.5388 55.8672 45.4823 55.8672C46.5908 55.8672 47.8359 56.304 49.2178 57.1778C50.4987 58.1155 51.6072 59.8383 52.5432 62.3462C53.4793 64.8541 53.946 68.1951 53.9436 72.3693V106.189H49.3619V74.5105C49.3619 66.9547 47.666 63.1756 44.2741 63.1731C43.0991 63.1731 42.0103 63.7983 41.0078 65.0485C39.9038 66.5205 39.1301 68.2128 38.7391 70.0102C38.1579 72.0847 37.8779 74.2319 37.9078 76.3859V106.189H33.3446V72.3545C33.3446 69.7334 33.0158 67.5479 32.3581 65.798C31.7004 64.0481 30.6104 63.1731 29.0881 63.1731C28.0535 63.1731 26.9783 63.642 25.8735 64.5797C24.802 65.5789 23.8685 67.3276 23.0728 69.8257C22.2772 72.3237 21.8794 75.5405 21.8794 79.4759V106.189H17.3125V57.1778Z" fill="#00A84F"/>
<path d="M60.3732 69.0762C61.2378 65.2688 62.6554 62.0829 64.626 59.5183C66.5621 57.0818 68.8628 55.8647 71.528 55.8672C74.2943 55.8672 76.6282 57.0842 78.5298 59.5183C80.4339 62.0189 81.8528 65.2048 82.7863 69.0762C83.7388 73.1918 84.2087 77.4041 84.1867 81.6282C84.1948 85.8515 83.7251 90.0622 82.7863 94.1801C81.8528 98.177 80.4339 101.426 78.5298 103.926C76.6257 106.427 74.293 107.673 71.5317 107.666C68.7975 107.666 66.4796 106.417 64.5779 103.919C62.6073 101.421 61.1897 98.1721 60.3251 94.1727C59.4249 90.0494 58.9727 85.841 58.9765 81.6208C58.9521 77.3992 59.4208 73.1892 60.3732 69.0762ZM64.3673 90.0638C64.86 93.0639 65.6729 95.5005 66.806 97.3734C68.0179 99.4334 69.5919 100.465 71.528 100.467C73.5331 100.467 75.1244 99.4359 76.3018 97.3734C77.5991 95.1216 78.445 92.6388 78.7922 90.0638C79.2382 87.2752 79.4631 84.4558 79.4646 81.6318C79.4654 78.7772 79.2406 75.9269 78.7922 73.1076C78.2995 70.2305 77.4694 67.8247 76.3018 65.8903C75.1342 63.9558 73.5442 62.991 71.5317 62.9959C68.694 62.9959 66.6705 64.9329 65.461 68.8067C64.2263 72.9727 63.6149 77.2982 63.6468 81.6429C63.6574 84.4648 63.8983 87.2811 64.3673 90.0638Z" fill="#00A84F"/>
<path d="M89.374 57.1778H93.6268V64.1035C95.9103 58.6077 98.695 55.8599 101.981 55.8599C104.158 55.8599 105.749 56.6401 106.751 58.2004C107.857 59.9099 108.696 61.777 109.241 63.738C110.628 60.8659 111.873 58.8366 112.977 57.6504C114.08 56.4641 115.603 55.8709 117.544 55.8709C118.652 55.8709 119.894 56.3066 121.279 57.1815C122.558 58.1192 123.666 59.842 124.605 62.3499C125.543 64.8579 126.01 68.1989 126.005 72.373V106.189H121.435V74.5105C121.435 66.9548 119.74 63.1757 116.35 63.1732C115.175 63.1732 114.087 63.7983 113.084 65.0486C111.975 66.5193 111.196 68.2116 110.801 70.0103C110.216 72.0842 109.932 74.2314 109.958 76.3859V106.189H105.402V72.3546C105.402 69.7334 105.075 67.5479 104.42 65.798C103.764 64.0481 102.674 63.1732 101.15 63.1732C100.11 63.1732 99.0386 63.6421 97.9351 64.5798C96.8611 65.579 95.9263 67.3276 95.1307 69.8257C94.335 72.3238 93.9372 75.5405 93.9372 79.4759V106.189H89.374V57.1778Z" fill="#00A84F"/>
<path d="M155.675 90.8134C155.391 93.0351 154.922 95.2294 154.275 97.3736C153.513 100.182 152.354 102.493 150.798 104.307C150.441 104.751 150.041 105.159 149.604 105.525L149.346 105.713C148.912 106.099 148.443 106.444 147.945 106.743C146.908 107.359 145.386 107.666 143.378 107.666C141.309 107.665 139.321 106.859 137.836 105.418C136.245 103.919 134.896 101.795 133.79 99.046C132.093 94.6749 131.246 89.365 131.248 83.1161C131.248 81.1816 131.334 79.1204 131.507 76.9324C131.654 74.9835 131.913 73.0445 132.283 71.1253C132.94 67.5 133.91 64.5011 135.19 62.1286C136.218 60.1323 137.624 58.3554 139.332 56.8974C140.662 55.7562 142.354 55.1242 144.106 55.1143C145.451 55.1141 146.767 55.5053 147.894 56.2402C149.264 57.2226 150.427 58.4644 151.319 59.8951C152.446 61.6962 153.302 63.6527 153.861 65.7022C155.275 70.8903 155.983 77.1379 155.985 84.4451H136.114C136.114 89.6283 136.789 93.5945 138.139 96.3436C139.489 99.0927 141.443 100.467 144.003 100.467C145.281 100.467 146.475 99.9357 147.583 98.8724C148.735 97.7481 149.606 96.3682 150.125 94.8448C150.642 93.5595 150.939 92.1968 151.005 90.8134H155.675ZM151.211 77.7926C151.224 75.8765 151.068 73.963 150.746 72.0741C150.437 70.4338 149.95 68.8319 149.294 67.297C148.082 64.5503 146.214 63.1758 143.689 63.1733C142.235 63.1733 140.973 63.8612 139.901 65.237C138.636 66.85 137.702 68.6967 137.152 70.6712C136.47 72.9838 136.12 75.3816 136.114 77.7926H151.211Z" fill="#00A84F"/>
<path d="M161.432 57.178H165.792V64.2994C166.122 63.2508 166.575 62.2447 167.14 61.3017C167.915 59.9132 168.894 58.6488 170.044 57.5509C171.172 56.4621 172.681 55.8578 174.249 55.8675C175.167 55.8501 176.08 56.0144 176.934 56.3508C177.788 56.6873 178.567 57.1892 179.226 57.8278C180.579 59.0756 181.651 61.0113 182.444 63.6349C183.221 66.6647 183.588 69.785 183.534 72.9122V106.19H178.968V75.825C178.968 71.9536 178.587 68.8611 177.826 66.5477C177.065 64.2982 175.664 63.1734 173.625 63.1734C172.206 63.1734 170.892 63.7985 169.682 65.0488C168.365 66.6279 167.424 68.4864 166.933 70.4831C166.285 72.9917 165.971 75.5748 165.999 78.1656V106.19H161.432V57.178Z" fill="#00A84F"/>
<path d="M194.999 57.3662V106.189H190.329V57.3662H194.999Z" fill="#00A84F"/>
</g>
<defs>
<linearGradient id="paint0_linear" x1="0" y1="70.0071" x2="210" y2="70.0071" gradientUnits="userSpaceOnUse">
<stop stop-color="#0F4D4D"/>
<stop offset="0.48" stop-color="#0C3E3E"/>
<stop offset="1" stop-color="#0A3333"/>
</linearGradient>
<clipPath id="clip0">
<rect width="180" height="88" fill="white" transform="translate(15 39)"/>
</clipPath>
</defs>
</svg>
